<svg width="809.3561031448099" height="809.3561031448099" viewBox="-51.42135623730951 -51.42135623730951 302.842712474619 302.842712474619" version="1.1" id="svg16372" inkscape:version="1.2.2 (732a01da63, 2022-12-09)" sodipodi:docname="filled_rocket.svg" xmlns:inkscape="http://www.inkscape.org/namespaces/inkscape" xmlns:sodipodi="http://sodipodi.sourceforge.net/DTD/sodipodi-0.dtd" xmlns="http://www.w3.org/2000/svg" xmlns:svg="http://www.w3.org/2000/svg">
  
  
  
  
  
  
  
  
  
  
  
  
  
<g id="all"><sodipodi:namedview id="namedview16374" pagecolor="#ffffff" bordercolor="#666666" borderopacity="1.0" inkscape:showpageshadow="2" inkscape:pageopacity="0.0" inkscape:pagecheckerboard="0" inkscape:deskcolor="#d1d1d1" inkscape:document-units="mm" showgrid="false" inkscape:zoom="0.84096521" inkscape:cx="-315.11411" inkscape:cy="385.27159" inkscape:window-width="2560" inkscape:window-height="1387" inkscape:window-x="-8" inkscape:window-y="-8" inkscape:window-maximized="1" inkscape:current-layer="svg16372"></sodipodi:namedview><defs id="defs16369"></defs><style>#disc{fill:none;stroke:black;stroke-width:2;}.mark-line{stroke:black;stroke-width:2;}.layer{stroke:black;stroke-width:0.1;fill:black;fill-opacity:1;}.layer .cutout{stroke:red;stroke-width:0.1;fill:gray;fill-opacity:0.2;}#center-hole{fill:none;stroke:black;stroke-width:1;stroke-dasharray:1 1;}</style><g id="layer-0" class="layer" visibility="visible" transform="rotate(0, 100, 100)"><g class="mark-wrapper" transform="matrix(0.5,0,0,0.5,50,50)"><g><line x1="100" y1="-41.42135623730951" x2="100" y2="-30.082773560144155" class="mark-line operation-engrave" data-layer-id="layer-0" style="stroke: rgb(0, 0, 0); fill: none;"></line><text class="layer-label operation-engrave" data-layer-id="layer-0" font-family="monospace" font-size="10" text-anchor="middle" x="100" y="-19.082773560144155" style="fill: rgb(0, 0, 0);"><tspan dy="0" x="100">1</tspan></text></g></g><text class="path-label operation-engrave" id="path-label-layer-0" data-layer-id="layer-0" font-family="monospace" font-size="5" text-anchor="start" x="162.2185871813965" y="57.89751025182724" transform="matrix(1,0,0,1,-28.398596335583782,47.31403849444052)" style="fill: rgb(0, 0, 0);"><tspan dy="0" x="162.2185871813965">1</tspan></text><g transform="matrix(0.3,0,0,0.3,88.89763779527559,96.45669291338584)"><path style="color: rgb(0, 0, 0); stroke-linecap: round; stroke-linejoin: round; stroke: rgb(255, 0, 0); fill: none; stroke-width: 0.1px;" d="M 153.32812,0.0078125 C 138.88155,1.1039081 116.53266,9.7589278 109.14063,13.001953 101.78726,16.22836 96.454702,19.795329 88.193359,26.525391 79.883493,33.295065 71.060949,41.690103 60.310547,54.835937 49.258057,68.351298 25.591797,106.29883 25.591797,106.29883 a 2.8726549,2.8726549 0 0 0 0.912109,3.95898 2.8726549,2.8726549 0 0 0 3.958985,-0.91211 c 0,0 24.061633,-38.35943 34.294921,-50.873044 10.535577,-12.88314 19.011337,-20.931675 27.064454,-27.492187 8.101841,-6.600125 12.744374,-9.69781 19.625004,-12.716797 6.84394,-3.002569 29.813,-11.5786815 42.3164,-12.5273439 A 2.8726549,2.8726549 0 0 0 156.41016,2.65625 2.8726549,2.8726549 0 0 0 153.32812,0.0078125 Z" id="path15703" class="cutout operation-cut" transform="matrix(1,0,0,1,4.550195000000002,4.550195000000002)"></path></g></g><g id="layer-1" class="layer" visibility="visible" transform="rotate(247.34207072422353, 100, 100)"><g class="mark-wrapper" transform="matrix(0.5,0,0,0.5,50,50)"><g><line x1="100" y1="-41.42135623730951" x2="100" y2="-30.082773560144155" class="mark-line operation-engrave" data-layer-id="layer-1" style="stroke: rgb(0, 0, 0); fill: none;"></line><text class="layer-label operation-engrave" data-layer-id="layer-1" font-family="monospace" font-size="10" text-anchor="middle" x="100" y="-19.082773560144155" style="fill: rgb(0, 0, 0);"><tspan dy="0" x="100">2</tspan></text></g></g><text class="path-label operation-engrave" id="path-label-layer-1" data-layer-id="layer-1" font-family="monospace" font-size="5" text-anchor="start" x="162.3432858203125" y="76.98555876953125" transform="matrix(1,0,0,1,-23.386020458975423,23.59051558550698)" style="fill: rgb(0, 0, 0);"><tspan dy="0" x="162.3432858203125">2</tspan></text><g transform="matrix(0.3,0,0,0.3,88.89763779527559,96.45669291338584)"><path style="color: rgb(0, 0, 0); stroke-linecap: round; stroke-linejoin: round; stroke: rgb(255, 0, 0); fill: none; stroke-width: 0.1px;" d="m 153.41992,0.02929688 a 2.8466051,2.8466051 0 0 0 -2.7168,2.96875002 c 1.2559,28.3579811 -6.23658,56.7454671 -12.65039,68.4277341 -4.95791,8.936577 -12.14887,20.315794 -21.79687,31.642579 -5.68936,6.68039 -11.41541,13.83747 -17.773438,20.57031 a 2.8468897,2.8468897 0 0 0 0,0.002 c -6.397548,6.77592 -13.20025,13.78149 -19.429688,20.40624 a 2.8466051,2.8466051 0 0 0 0.123047,4.02344 2.8466051,2.8466051 0 0 0 4.025391,-0.12304 c 6.18475,-6.57724 12.984482,-13.58238 19.419918,-20.39844 6.56796,-6.95515 12.36013,-14.20347 17.96875,-20.78906 9.96639,-11.700572 17.35138,-23.397493 22.44727,-32.583989 a 2.8468897,2.8468897 0 0 0 0.006,-0.01172 c 7.33618,-13.362307 14.65376,-41.926307 13.34765,-71.4179682 a 2.8466051,2.8466051 0 0 0 -2.9707,-2.71679692 z" id="path15703-7" class="cutout operation-cut" transform="matrix(1,0,0,1,4.550195000000002,4.550195000000002)"></path></g></g><g id="layer-2" class="layer" visibility="visible" transform="rotate(135, 100, 100)"><g class="mark-wrapper" transform="matrix(0.5,0,0,0.5,50,50)"><g><line x1="100" y1="-41.42135623730951" x2="100" y2="-30.082773560144155" class="mark-line operation-engrave" data-layer-id="layer-2" style="stroke: rgb(0, 0, 0); fill: none;"></line><text class="layer-label operation-engrave" data-layer-id="layer-2" font-family="monospace" font-size="10" text-anchor="middle" x="100" y="-19.082773560144155" style="fill: rgb(0, 0, 0);"><tspan dy="0" x="100">3</tspan></text></g></g><text class="path-label operation-engrave" id="path-label-layer-2" data-layer-id="layer-2" font-family="monospace" font-size="5" text-anchor="start" x="130.9154751513672" y="66.79940917236328" transform="matrix(1,0,0,1,-9.768202021572169,51.38350709619449)" style="fill: rgb(0, 0, 0);"><tspan dy="0" x="130.9154751513672">3</tspan></text><g transform="matrix(0.3,0,0,0.3,88.89763779527559,96.45669291338584)"><path style="color: rgb(0, 0, 0); fill-rule: evenodd; stroke-linecap: round; stroke-linejoin: round; stroke: rgb(255, 0, 0); fill: none; stroke-width: 0.1px;" d="m 104.32227,44.138672 a 2.8466051,2.8466051 0 0 0 -2.84766,2.845703 2.8466051,2.8466051 0 0 0 2.84766,2.847656 c 4.00616,0 7.84401,1.589524 10.67578,4.421875 a 2.8468897,2.8468897 0 0 0 0.002,0 c 2.8329,2.832646 4.42187,6.671882 4.42188,10.677735 0,6.115519 -3.67043,11.610757 -9.32032,13.951171 a 2.8466051,2.8466051 0 0 0 -1.54101,3.71875 2.8466051,2.8466051 0 0 0 3.71875,1.541016 c 7.7621,-3.215379 12.83593,-10.808871 12.83593,-19.210937 0,-5.513738 -2.19074,-10.804378 -6.08984,-14.703125 -3.89823,-3.899042 -9.1893,-6.089844 -14.70312,-6.089844 z" id="path971" class="cutout operation-cut" transform="matrix(1,0,0,1,4.550195000000002,4.550195000000002)"></path></g></g><g id="layer-3" class="layer" visibility="visible" transform="rotate(90, 100, 100)"><g class="mark-wrapper" transform="matrix(0.5,0,0,0.5,50,50)"><g><line x1="100" y1="-41.42135623730951" x2="100" y2="-30.082773560144155" class="mark-line operation-engrave" data-layer-id="layer-3" style="stroke: rgb(0, 0, 0); fill: none;"></line><text class="layer-label operation-engrave" data-layer-id="layer-3" font-family="monospace" font-size="10" text-anchor="middle" x="100" y="-19.082773560144155" style="fill: rgb(0, 0, 0);"><tspan dy="0" x="100">4</tspan></text></g></g><text class="path-label operation-engrave" id="path-label-layer-3" data-layer-id="layer-3" font-family="monospace" font-size="5" text-anchor="start" x="119.83767821533203" y="67.48116042358399" transform="matrix(1,0,0,1,-5.191130210095501,43.20132181963583)" style="fill: rgb(0, 0, 0);"><tspan dy="0" x="119.83767821533203">4</tspan></text><g transform="matrix(0.3,0,0,0.3,88.89763779527559,96.45669291338584)"><path style="color: rgb(0, 0, 0); fill-rule: evenodd; stroke-linecap: round; stroke-linejoin: round; stroke: rgb(255, 0, 0); fill: none; stroke-width: 0.1px;" d="m 104.32227,44.138672 c -8.401966,0 -15.99557,5.07351 -19.210942,12.835937 -3.215256,7.762427 -1.433331,16.719013 4.507813,22.660157 5.941182,5.941182 14.897939,7.723123 22.660159,4.507812 a 2.8466051,2.8466051 0 0 0 1.54101,-3.71875 2.8466051,2.8466051 0 0 0 -3.71875,-1.541016 c -5.64977,2.340284 -12.132622,1.05097 -16.457029,-3.273437 -4.324446,-4.324446 -5.613776,-10.806871 -3.273437,-16.457031 2.340422,-5.650159 7.835548,-9.320313 13.951176,-9.320313 a 2.8466051,2.8466051 0 0 0 2.8457,-2.847656 2.8466051,2.8466051 0 0 0 -2.8457,-2.845703 z" id="path16333" class="cutout operation-cut" transform="matrix(1,0,0,1,4.550195000000002,4.550195000000002)"></path></g></g><g id="layer-4" class="layer" visibility="visible" transform="rotate(-44.7524620352078, 100, 100)"><g class="mark-wrapper" transform="matrix(0.5,0,0,0.5,50,50)"><g><line x1="100" y1="-41.42135623730951" x2="100" y2="-30.082773560144155" class="mark-line operation-engrave" data-layer-id="layer-4" style="stroke: rgb(0, 0, 0); fill: none;"></line><text class="layer-label operation-engrave" data-layer-id="layer-4" font-family="monospace" font-size="10" text-anchor="middle" x="100" y="-19.082773560144155" style="fill: rgb(0, 0, 0);"><tspan dy="0" x="100">5</tspan></text></g></g><text class="path-label operation-engrave" id="path-label-layer-4" data-layer-id="layer-4" font-family="monospace" font-size="5" text-anchor="start" x="157.16898467285156" y="36.57076194030762" transform="matrix(1,0,0,1,-33.36964704150257,79.52654566472232)" style="fill: rgb(0, 0, 0);"><tspan dy="0" x="157.16898467285156">5</tspan></text><g transform="matrix(0.3,0,0,0.3,88.89763779527559,96.45669291338584)"><path style="color: rgb(0, 0, 0); stroke-linecap: round; stroke-linejoin: round; stroke: rgb(255, 0, 0); fill: none; stroke-width: 0.1px;" d="m 107.82031,14.265625 a 2.8726549,2.8726549 0 0 0 -2.16406,0.382813 2.8726549,2.8726549 0 0 0 -0.87891,3.966796 c 0,0 2.61456,4.100137 6.1543,8.947266 3.53974,4.847129 7.90872,10.425032 12.03906,13.769531 3.91492,3.170457 9.90871,6.098054 15.06836,8.410156 5.15966,2.312103 9.44922,3.917969 9.44922,3.917969 a 2.8726549,2.8726549 0 0 0 3.69727,-1.683594 2.8726549,2.8726549 0 0 0 -1.68164,-3.697265 c 0,0 -4.13391,-1.547104 -9.11524,-3.779297 -4.98133,-2.232193 -10.84766,-5.239675 -13.80273,-7.632813 -3.17065,-2.567394 -7.58917,-8.004022 -11.01367,-12.693359 -3.42451,-4.689336 -5.95118,-8.648437 -5.95118,-8.648437 a 2.8726549,2.8726549 0 0 0 -1.80078,-1.259766 z" id="path16335" class="cutout operation-cut" transform="matrix(1,0,0,1,4.550195000000002,4.550195000000002)"></path></g></g><g id="layer-5" class="layer" visibility="visible" transform="rotate(45, 100, 100)"><g class="mark-wrapper" transform="matrix(0.5,0,0,0.5,50,50)"><g><line x1="100" y1="-41.42135623730951" x2="100" y2="-30.082773560144155" class="mark-line operation-engrave" data-layer-id="layer-5" style="stroke: rgb(0, 0, 0); fill: none;"></line><text class="layer-label operation-engrave" data-layer-id="layer-5" font-family="monospace" font-size="10" text-anchor="middle" x="100" y="-19.082773560144155" style="fill: rgb(0, 0, 0);"><tspan dy="0" x="100">6</tspan></text></g></g><text class="path-label operation-engrave" id="path-label-layer-5" data-layer-id="layer-5" font-family="monospace" font-size="5" text-anchor="start" x="87.69042327148438" y="115.01610686523438" transform="matrix(1,0,0,1,22.84439007275942,21.679055641309507)" style="fill: rgb(0, 0, 0);"><tspan dy="0" x="87.69042327148438">6</tspan></text><g transform="matrix(0.3,0,0,0.3,88.89763779527559,96.45669291338584)"><path style="color: rgb(0, 0, 0); stroke-linecap: round; stroke-linejoin: round; stroke: rgb(255, 0, 0); fill: none; stroke-width: 0.1px;" d="m 78.671875,93.585937 a 2.8726549,2.8726549 0 0 0 -1.914063,1.078125 L 51.615234,126.7207 a 2.8726549,2.8726549 0 0 0 0.486328,4.03321 2.8726549,2.8726549 0 0 0 4.033204,-0.48633 L 81.277344,98.210937 a 2.8726549,2.8726549 0 0 0 -0.486328,-4.033203 2.8726549,2.8726549 0 0 0 -2.119141,-0.591797 z" id="path16337" class="cutout operation-cut" transform="matrix(1,0,0,1,4.550195000000002,4.550195000000002)"></path></g></g><g id="layer-6" class="layer" visibility="visible" transform="rotate(321, 100, 100)"><g class="mark-wrapper" transform="matrix(0.5,0,0,0.5,50,50)"><g><line x1="100" y1="-41.42135623730951" x2="100" y2="-30.082773560144155" class="mark-line operation-engrave" data-layer-id="layer-6" style="stroke: rgb(0, 0, 0); fill: none;"></line><text class="layer-label operation-engrave" data-layer-id="layer-6" font-family="monospace" font-size="10" text-anchor="middle" x="100" y="-19.082773560144155" style="fill: rgb(0, 0, 0);"><tspan dy="0" x="100">7</tspan></text></g></g><text class="path-label operation-engrave" id="path-label-layer-6" data-layer-id="layer-6" font-family="monospace" font-size="5" text-anchor="start" x="89.79935576660156" y="130.9004719470215" transform="matrix(1,0,0,1,12.680228154521085,14.995832710978007)" style="fill: rgb(0, 0, 0);"><tspan dy="0" x="89.79935576660156">7</tspan></text><g transform="matrix(0.3,0,0,0.3,88.89763779527559,96.45669291338584)"><path style="color: rgb(0, 0, 0); stroke-linecap: round; stroke-linejoin: round; stroke: rgb(255, 0, 0); fill: none; stroke-width: 0.1px;" d="m 29.677734,105.4707 a 2.8726549,2.8726549 0 0 0 -4.001953,0.70313 2.8726549,2.8726549 0 0 0 0.701172,4 l 4.148438,2.91015 -2.804688,8.19532 a 2.8729422,2.8729422 0 0 0 0.943359,3.18945 l 33.941407,26.66797 a 2.8729422,2.8729422 0 0 0 3.208984,0.23047 l 7.837891,-4.51367 6.6875,1.90625 a 2.8726549,2.8726549 0 0 0 3.548828,-1.97657 2.8726549,2.8726549 0 0 0 -1.97461,-3.54883 l -7.855468,-2.23828 a 2.8729422,2.8729422 0 0 0 -2.220703,0.27344 l -7.208985,4.15039 -30.8125,-24.21094 2.841797,-8.30664 a 2.8729422,2.8729422 0 0 0 -1.066406,-3.28125 z" id="path16339" class="cutout operation-cut" transform="matrix(1,0,0,1,4.550195000000002,4.550195000000002)"></path></g></g><g id="layer-7" class="layer" visibility="visible" transform="rotate(23.14154442465788, 100, 100)"><g class="mark-wrapper" transform="matrix(0.5,0,0,0.5,50,50)"><g><line x1="100" y1="-41.42135623730951" x2="100" y2="-30.082773560144155" class="mark-line operation-engrave" data-layer-id="layer-7" style="stroke: rgb(0, 0, 0); fill: none;"></line><text class="layer-label operation-engrave" data-layer-id="layer-7" font-family="monospace" font-size="10" text-anchor="middle" x="100" y="-19.082773560144155" style="fill: rgb(0, 0, 0);"><tspan dy="0" x="100">8</tspan></text></g></g><text class="path-label operation-engrave" id="path-label-layer-7" data-layer-id="layer-7" font-family="monospace" font-size="5" text-anchor="start" x="119.38844420654297" y="150.05108000976563" transform="matrix(1,0,0,1,0.18423106768315378,0.428893745096218)" style="fill: rgb(0, 0, 0);"><tspan dy="0" x="119.38844420654297">8</tspan></text><g transform="matrix(0.3,0,0,0.3,88.89763779527559,96.45669291338584)"><path style="color: rgb(0, 0, 0); stroke-linecap: round; stroke-linejoin: round; stroke: rgb(255, 0, 0); fill: none; stroke-width: 0.1px;" d="m 106.66797,115.53125 a 2.8726549,2.8726549 0 0 0 -2.46484,3.23047 l 3.44726,25.64648 -30.509765,24.19727 6.730469,-21.75977 a 2.8726549,2.8726549 0 0 0 -1.896485,-3.59375 2.8726549,2.8726549 0 0 0 -3.591797,1.89649 l -9.472656,30.62695 a 2.8729422,2.8729422 0 0 0 4.529297,3.09961 L 112.5,147.89648 a 2.8729422,2.8729422 0 0 0 1.0625,-2.63476 l -3.66602,-27.26563 a 2.8726549,2.8726549 0 0 0 -3.22851,-2.46484 z" id="path16341" class="cutout operation-cut" transform="matrix(1,0,0,1,4.550195000000002,4.550195000000002)"></path></g></g><g id="layer-8" class="layer" visibility="visible" transform="rotate(112, 100, 100)"><g class="mark-wrapper" transform="matrix(0.5,0,0,0.5,50,50)"><g><line x1="100" y1="-41.42135623730951" x2="100" y2="-30.082773560144155" class="mark-line operation-engrave" data-layer-id="layer-8" style="stroke: rgb(0, 0, 0); fill: none;"></line><text class="layer-label operation-engrave" data-layer-id="layer-8" font-family="monospace" font-size="10" text-anchor="middle" x="100" y="-19.082773560144155" style="fill: rgb(0, 0, 0);"><tspan dy="0" x="100">9</tspan></text></g></g><text class="path-label operation-engrave" id="path-label-layer-8" data-layer-id="layer-8" font-family="monospace" font-size="5" text-anchor="start" x="73.05444648010254" y="143.52615096313477" transform="matrix(1,0,0,1,27.165403424911496,3.789291412994441)" style="fill: rgb(0, 0, 0);"><tspan dy="0" x="73.05444648010254">9</tspan></text><g transform="matrix(0.3,0,0,0.3,88.89763779527559,96.45669291338584)"><path style="color: rgb(0, 0, 0); stroke-linecap: round; stroke-linejoin: round; stroke: rgb(255, 0, 0); fill: none; stroke-width: 0.1px;" d="m 28.75,119.88672 -8.890625,6.46484 a 2.8729422,2.8729422 0 0 0 -0.115234,4.55664 l 38.439453,31.06836 a 2.8729422,2.8729422 0 0 0 4.46875,-1.1582 l 4.392578,-10.86524 a 2.8726549,2.8726549 0 0 0 -1.587891,-3.74023 2.8726549,2.8726549 0 0 0 -3.740234,1.58789 l -2.9375,7.26953 -32.509766,-26.27539 5.859375,-4.26172 A 2.8726549,2.8726549 0 0 0 32.761719,120.51953 2.8726549,2.8726549 0 0 0 28.75,119.88672 Z" id="path16343" class="cutout operation-cut" transform="matrix(1,0,0,1,4.550195000000002,4.550195000000002)"></path></g></g><g id="layer-9" class="layer" visibility="visible" transform="rotate(67, 100, 100)"><g class="mark-wrapper" transform="matrix(0.5,0,0,0.5,50,50)"><g><line x1="100" y1="-41.42135623730951" x2="100" y2="-30.082773560144155" class="mark-line operation-engrave" data-layer-id="layer-9" style="stroke: rgb(0, 0, 0); fill: none;"></line><text class="layer-label operation-engrave" data-layer-id="layer-9" font-family="monospace" font-size="10" text-anchor="middle" x="100" y="-19.082773560144155" style="fill: rgb(0, 0, 0);"><tspan dy="0" x="100">10</tspan></text></g></g><text class="path-label operation-engrave" id="path-label-layer-9" data-layer-id="layer-9" font-family="monospace" font-size="5" text-anchor="start" x="56.12420167667389" y="164.22831084472656" transform="matrix(1,0,0,1,27.780945995458005,-14.770613158819195)" style="fill: rgb(0, 0, 0);"><tspan dy="0" x="56.12420167667389">10</tspan></text><g transform="matrix(0.3,0,0,0.3,88.89763779527559,96.45669291338584)"><path style="color: rgb(0, 0, 0); stroke-linecap: round; stroke-linejoin: round; stroke: rgb(255, 0, 0); fill: none; stroke-width: 0.1px;" d="m 30.394531,132.52148 a 2.8726549,2.8726549 0 0 0 -2.164062,0.39258 c 0,0 -8.958413,5.67301 -13.376953,9.78321 -3.471663,3.22823 -7.5116007,6.78325 -9.8867191,11.7832 -2.5540163,5.37732 -2.6871272,11.15975 -3.0957032,16.21289 -0.5073128,6.27339 0.3808594,17.54492 0.3808594,17.54492 a 2.8729422,2.8729422 0 0 0 3.4003906,2.61133 c 0,0 12.0109973,-2.21595 17.8671873,-4.27539 5.602404,-1.96916 11.3151,-5.08113 14.414063,-7.50391 1.134201,-0.88688 2.160688,-2.09535 3.509765,-3.82226 1.349078,-1.72692 2.878978,-3.89597 4.394532,-6.33594 3.031107,-4.87995 6.026696,-10.78416 7.179687,-16.51367 a 2.8726549,2.8726549 0 0 0 -2.25,-3.38282 2.8726549,2.8726549 0 0 0 -3.382812,2.24805 c -0.912907,4.53648 -3.616298,10.0909 -6.427735,14.61719 -1.405718,2.26314 -2.833577,4.28447 -4.041015,5.83008 -1.207439,1.54561 -2.336538,2.68936 -2.521485,2.83398 -2.163232,1.69122 -7.879664,4.88654 -12.78125,6.60938 -3.541982,1.2456 -10.185476,2.64062 -13.8085935,3.3789 -0.2057646,-3.52418 -0.513671,-9.58506 -0.2070313,-13.37695 0.4227833,-5.22885 0.6869345,-10.27027 2.5585938,-14.21094 1.716556,-3.61358 5.099615,-6.7755 8.611328,-10.04101 3.422652,-3.1838 12.570313,-9.16016 12.570313,-9.16016 a 2.8726549,2.8726549 0 0 0 0.861328,-3.96875 2.8726549,2.8726549 0 0 0 -1.804688,-1.25391 z" id="path16345" class="cutout operation-cut" transform="matrix(1,0,0,1,4.550195000000002,4.550195000000002)"></path></g></g><g id="layer-10" class="layer" visibility="visible" transform="rotate(126.86784348043783, 100, 100)"><g class="mark-wrapper" transform="matrix(0.5,0,0,0.5,50,50)"><g><line x1="100" y1="-41.42135623730951" x2="100" y2="-30.082773560144155" class="mark-line operation-engrave" data-layer-id="layer-10" style="stroke: rgb(0, 0, 0); fill: none;"></line><text class="layer-label operation-engrave" data-layer-id="layer-10" font-family="monospace" font-size="10" text-anchor="middle" x="100" y="-19.082773560144155" style="fill: rgb(0, 0, 0);"><tspan dy="0" x="100">11</tspan></text></g></g><text class="path-label operation-engrave" id="path-label-layer-10" data-layer-id="layer-10" font-family="monospace" font-size="5" text-anchor="start" x="56.03875797135353" y="98.78265502197266" transform="matrix(1,0,0,1,44.16146225816622,27.044224956842864)" style="fill: rgb(0, 0, 0);"><tspan dy="0" x="56.03875797135353">11</tspan></text><g transform="matrix(0.3,0,0,0.3,88.89763779527559,96.45669291338584)"><path style="color: rgb(0, 0, 0); stroke-linecap: round; stroke-linejoin: round; stroke: rgb(255, 0, 0); fill: none; stroke-width: 0.1px;" d="m 49.900391,70.982422 -25.783204,1.9375 a 2.8729422,2.8729422 0 0 0 -2.351562,1.578125 L 0.3046875,117.33008 a 2.8729422,2.8729422 0 0 0 3.7011719,3.92773 L 29.160156,110.46289 a 2.8726549,2.8726549 0 0 0 1.507813,-3.77344 2.8726549,2.8726549 0 0 0 -3.773438,-1.50586 L 8.9609375,112.87891 26.171875,78.527344 50.330078,76.710937 a 2.8726549,2.8726549 0 0 0 2.650391,-3.080078 2.8726549,2.8726549 0 0 0 -3.080078,-2.648437 z" id="path16347" class="cutout operation-cut" transform="matrix(1,0,0,1,4.550195000000002,4.550195000000002)"></path></g></g><g id="disc-elements" transform="matrix(0.5,0,0,0.5,50,50)"><circle r="141.4213562373095" cx="100" cy="100" id="disc" class="operation-cut" style="stroke: rgb(255, 0, 0); fill: none; stroke-width: 0.1px;"></circle><circle r="1.8897637795275593" cx="100" cy="100" id="center-hole" class="operation-cut" style="stroke: rgb(255, 0, 0); fill: none; stroke-width: 0.1px; stroke-dasharray: none;"></circle></g></g></svg>