<?xml version="1.0" encoding="UTF-8" standalone="no"?>
<!-- Created with Inkscape (http://www.inkscape.org/) -->

<svg
   width="512"
   height="512"
   viewBox="0 0 135.46666 135.46667"
   version="1.1"
   id="svg5"
   inkscape:version="1.2.2 (732a01da63, 2022-12-09)"
   sodipodi:docname="easy2.svg"
   xmlns:inkscape="http://www.inkscape.org/namespaces/inkscape"
   xmlns:sodipodi="http://sodipodi.sourceforge.net/DTD/sodipodi-0.dtd"
   xmlns="http://www.w3.org/2000/svg"
   xmlns:svg="http://www.w3.org/2000/svg">
  <sodipodi:namedview
     id="namedview7"
     pagecolor="#ffffff"
     bordercolor="#666666"
     borderopacity="1.0"
     inkscape:showpageshadow="2"
     inkscape:pageopacity="0.0"
     inkscape:pagecheckerboard="0"
     inkscape:deskcolor="#d1d1d1"
     inkscape:document-units="mm"
     showgrid="false"
     inkscape:zoom="1.6819304"
     inkscape:cx="397.16269"
     inkscape:cy="287.17003"
     inkscape:window-width="2560"
     inkscape:window-height="1387"
     inkscape:window-x="-8"
     inkscape:window-y="-8"
     inkscape:window-maximized="1"
     inkscape:current-layer="layer1" />
  <defs
     id="defs2">
    <inkscape:perspective
       sodipodi:type="inkscape:persp3d"
       inkscape:vp_x="-0.078654657 : 66.828806 : 1"
       inkscape:vp_y="0 : 1000 : 0"
       inkscape:vp_z="135.38801 : 66.828806 : 1"
       inkscape:persp3d-origin="67.654675 : 44.251028 : 1"
       id="perspective772" />
    <rect
       x="-112.6709"
       y="-26.065657"
       width="316.15119"
       height="180.77794"
       id="rect710" />
    <rect
       x="577.64858"
       y="84.923591"
       width="660.04969"
       height="42.882209"
       id="rect704" />
  </defs>
  <g
     inkscape:label="Layer 1"
     inkscape:groupmode="layer"
     id="layer1">
    <text
       xml:space="preserve"
       transform="scale(0.26458333)"
       id="text702"
       style="fill:black;fill-opacity:1;stroke:none;font-family:sans-serif;font-style:normal;font-weight:normal;font-size:40px;line-height:1.25;letter-spacing:0px;word-spacing:0px;white-space:pre;shape-inside:url(#rect704)" />
    <text
       xml:space="preserve"
       transform="scale(0.26458333)"
       id="text708"
       style="fill:black;fill-opacity:1;stroke:none;font-family:sans-serif;font-style:normal;font-weight:normal;font-size:40px;line-height:1.25;letter-spacing:0px;word-spacing:0px;white-space:pre;shape-inside:url(#rect710)" />
    <path
       style="color:#000000;fill:#000000;stroke-linecap:round;stroke-linejoin:round;fill-opacity:1;stroke-width:2;stroke-dasharray:none;stroke:none"
       d="m 14.154297,45.697266 a 1.6825,1.6825 0 0 0 -1.076172,0.710937 1.6825,1.6825 0 0 0 0.451172,2.335938 c 0,0 5.425207,3.68561 11.230469,6.097656 2.902631,1.206023 5.8903,2.144368 8.636718,2.019531 1.373209,-0.06242 2.736484,-0.418299 3.851563,-1.289062 1.115079,-0.870764 1.869964,-2.225231 2.162109,-3.832032 a 1.6825,1.6825 0 0 0 -1.355469,-1.955078 1.6825,1.6825 0 0 0 -1.955078,1.353516 c -0.179781,0.9888 -0.5076,1.456218 -0.923828,1.78125 -0.416227,0.325031 -1.033698,0.539263 -1.93164,0.580078 -1.795884,0.08163 -4.511516,-0.651338 -7.19336,-1.765625 C 20.687093,49.5058 15.416016,45.957031 15.416016,45.957031 a 1.6825,1.6825 0 0 0 -1.261719,-0.259765 z"
       id="path1455" />
    <path
       style="color:#000000;fill:#000000;stroke-linecap:round;stroke-linejoin:round;stroke-width:2;stroke-dasharray:none;stroke:none"
       d="m 50.333984,42.388672 c -3.608976,-0.285755 -6.831228,0.282219 -9.367187,1.765625 -2.53596,1.483406 -4.314733,3.945873 -4.867188,6.984375 a 1.6825,1.6825 0 0 0 1.353516,1.957031 1.6825,1.6825 0 0 0 1.957031,-1.355469 c 0.3914,-2.1527 1.480565,-3.641231 3.25586,-4.679687 1.775294,-1.038456 4.306017,-1.56157 7.402343,-1.316406 6.192654,0.490327 14.534005,4.068425 22.892578,11.660156 4.088939,3.713806 5.045463,6.400583 4.753907,7.976562 -0.291557,1.57598 -1.94892,2.987842 -4.962891,3.917969 -6.027943,1.860255 -16.334519,1.051556 -22.550781,-2.345703 a 1.6825,1.6825 0 0 0 -2.283203,0.669922 1.6825,1.6825 0 0 0 0.669922,2.283203 c 7.312328,3.996272 17.930895,4.839158 25.15625,2.609375 3.612677,-1.114891 6.661409,-3.183506 7.279296,-6.523438 0.617888,-3.339931 -1.314418,-7.005128 -5.798828,-11.078125 -8.788126,-7.981876 -17.672672,-11.95388 -24.890625,-12.52539 z"
       id="path1459" />
    <path
       style="color:#000000;fill:#000000;stroke-linecap:round;stroke-linejoin:round;stroke-width:2;stroke-dasharray:none;stroke:none"
       d="m 43.289062,65.089844 c -0.635824,0.08145 -1.228119,0.259567 -1.779296,0.535156 -2.204708,1.102354 -3.077326,3.419606 -3.41211,5.595703 -0.529021,3.438637 0.02404,6.547218 0.316406,7.976563 -1.001182,0.610927 -3.171483,1.849365 -5.599609,2.027343 -1.538073,0.112739 -2.842053,-0.176787 -4.003906,-1.388672 -1.161853,-1.211884 -2.257656,-3.586095 -2.59375,-7.917968 a 1.6825,1.6825 0 0 0 -1.806641,-1.546875 1.6825,1.6825 0 0 0 -1.546875,1.80664 c 0.371798,4.792058 1.597155,7.983208 3.517578,9.986328 1.920424,2.003121 4.462004,2.578569 6.679688,2.416016 C 37.495914,84.254973 41.25,81.439453 41.25,81.439453 a 1.6826683,1.6826683 0 0 0 0.660156,-1.748047 c 0,0 -0.996578,-4.642358 -0.486328,-7.958984 0.255125,-1.658313 0.81551,-2.710489 1.589844,-3.097656 0.774334,-0.387167 2.424945,-0.44963 5.574219,1.271484 a 1.6825,1.6825 0 0 0 2.283203,-0.669922 1.6825,1.6825 0 0 0 -0.669922,-2.283203 c -2.711265,-1.481738 -5.004635,-2.107638 -6.91211,-1.863281 z"
       id="path1451" />
  </g>
</svg>
