<?xml version="1.0" encoding="UTF-8" standalone="no"?>
<!-- Created with Inkscape (http://www.inkscape.org/) -->
<svg width="100mm" height="100mm" viewBox="0 0 100 100" version="1.1" id="svg185" xml:space="preserve" inkscape:version="1.2.2 (732a01da63, 2022-12-09)" sodipodi:docname="drawing.svg" xmlns:inkscape="http://www.inkscape.org/namespaces/inkscape" xmlns:sodipodi="http://sodipodi.sourceforge.net/DTD/sodipodi-0.dtd" xmlns="http://www.w3.org/2000/svg" xmlns:svg="http://www.w3.org/2000/svg">
	<sodipodi:namedview id="namedview187" pagecolor="#ffffff" bordercolor="#666666" borderopacity="1.0" inkscape:showpageshadow="2" inkscape:pageopacity="0.0" inkscape:pagecheckerboard="0" inkscape:deskcolor="#d1d1d1" inkscape:document-units="mm" showgrid="false" inkscape:zoom="1.6819304" inkscape:cx="103.15528" inkscape:cy="219.98532" inkscape:window-width="2560" inkscape:window-height="1387" inkscape:window-x="-8" inkscape:window-y="-8" inkscape:window-maximized="1" inkscape:current-layer="layer1"/>
	<defs id="defs182"/>
	
		
			<g inkscape:label="Disc 1" id="layer1-2" transform="matrix(0.40672243,0,0,0.40672243,9.7060573,58.427172)">
				<path style="color:#000000;vector-effect:non-scaling-stroke;fill:#776f6f;fill-opacity:0.453608;stroke:#ff0009;stroke-width:0.264583;stroke-linecap:round;stroke-linejoin:round;stroke-dasharray:none;stroke-opacity:1;-inkscape-stroke:hairline" d="m 16.804687,39.039062 a 1,1 0 0 0 -0.921874,1.072266 c 0.05364,0.701583 0.195395,1.811377 0.603515,2.697266 0.445585,0.967299 0.926416,2.093016 1.746094,3.044922 0.846339,0.982703 1.950133,1.723842 3.167969,2.177734 0.847892,0.316003 1.580262,0.464375 2.355468,0.615234 3.135031,0.609171 6.969138,0.382372 9.919922,-0.08203 0.920782,-0.144971 2.004249,-0.27885 3,-0.626953 0.484414,-0.169376 0.977071,-0.313836 1.488281,-0.626953 0.511211,-0.313117 0.985472,-0.816133 1.324219,-1.492188 0.347177,-0.692422 0.402344,-1.314928 0.402344,-1.859375 a 1,1 0 0 0 -1,-1 1,1 0 0 0 -1,1 c 0,0.519893 0.03668,0.513828 -0.189453,0.964844 -0.204236,0.407604 -0.35474,0.540471 -0.582031,0.679688 -0.227292,0.139216 -0.586257,0.264452 -1.103516,0.445312 -0.700459,0.244873 -1.69739,0.390972 -2.650391,0.541016 -2.776764,0.437014 -6.495959,0.624336 -9.226562,0.09375 -0.764352,-0.148747 -1.348971,-0.270152 -2.039063,-0.527344 -0.919637,-0.342753 -1.74468,-0.902757 -2.351562,-1.607422 -0.545683,-0.633711 -0.991633,-1.593254 -1.445313,-2.578125 -0.139579,-0.302978 -0.390589,-1.551413 -0.425781,-2.011719 a 1,1 0 0 0 -1.072266,-0.919923 z" id="path1041"/>
				<path style="color:#000000;vector-effect:non-scaling-stroke;fill:#776f6f;fill-opacity:0.453608;stroke:#ff0009;stroke-width:0.264583;stroke-linecap:round;stroke-linejoin:round;stroke-dasharray:none;stroke-opacity:1;-inkscape-stroke:hairline" d="m 17.792969,37.074219 c -0.886086,0.172287 -1.576907,0.823465 -1.796875,1.474609 -0.219969,0.651144 -0.140187,1.210051 -0.113281,1.5625 a 1,1 0 0 0 1.074218,0.921875 1,1 0 0 0 0.919922,-1.074219 c -0.02771,-0.362924 -0.01977,-0.672496 0.01367,-0.771484 0.03344,-0.09899 -0.07757,-0.08024 0.283203,-0.150391 0.270939,-0.05275 0.08828,-0.04037 0.591797,0.04102 1.071574,0.173677 3.376042,0.380021 4.398437,0.541016 1.81321,0.285325 3.629422,0.630675 5.492188,0.923828 2.045034,0.321968 4.609024,0.62138 6.476562,1.144531 a 1.0001,1.0001 0 0 0 0.002,0 c 0.583316,0.163278 0.915285,0.196003 1.308593,0.353516 0.361224,0.144679 0.624915,0.324062 0.947266,0.623046 0.276594,0.256554 0.34746,0.365353 0.427734,0.726563 0.05546,0.248875 0.07227,0.350884 0.07227,0.568359 a 1,1 0 0 0 1,1 1,1 0 0 0 1,-1 c 0,-0.370498 -0.05034,-0.693169 -0.119141,-1.001953 -0.155979,-0.701863 -0.536455,-1.311691 -1.019531,-1.759765 -0.4435,-0.411353 -0.951613,-0.768214 -1.564453,-1.013672 -0.636485,-0.254901 -1.095729,-0.304887 -1.513672,-0.421875 -2.124938,-0.595256 -4.735115,-0.882903 -6.707031,-1.19336 -1.821148,-0.286602 -3.637162,-0.631922 -5.492188,-0.923828 -1.202338,-0.189329 -3.539338,-0.403358 -4.388672,-0.541015 a 1,1 0 0 0 -0.002,0 c -0.488313,-0.07893 -0.869541,-0.11135 -1.291015,-0.0293 z" id="path1027"/>
				<path style="color:#000000;vector-effect:non-scaling-stroke;fill:#776f6f;fill-opacity:0.453608;stroke:#ff0009;stroke-width:0.264583;stroke-linecap:round;stroke-linejoin:round;stroke-dasharray:none;stroke-opacity:1;-inkscape-stroke:hairline" d="m 49.009766,24.619141 a 1,1 0 0 0 -0.632813,0.43164 1,1 0 0 0 0.291016,1.382813 c 5.2e-5,3.4e-5 -0.130729,-0.100368 -0.134766,-0.103516 0.01154,0.01128 0.02155,0.0209 0.03711,0.03516 0.04626,0.04239 0.109514,0.09665 0.1875,0.152344 0.155974,0.111383 0.37834,0.237792 0.667969,0.318359 0.494161,0.137434 1.304418,0.296988 2.109375,0.462891 0.804957,0.165903 1.670167,0.368781 1.744141,0.394531 0.190195,0.06621 0.215467,0.0932 0.183594,0.06445 -0.02087,-0.01882 0.0015,0.04177 0.01563,0.08203 -0.0022,0.01057 -0.0055,0.02395 -0.0098,0.03711 -0.0043,0.01316 0.0061,-0.02488 -0.0293,0.08789 a 1.0001,1.0001 0 0 0 -0.002,0.002 c -0.06893,0.221233 -0.127174,0.457736 -0.226563,0.71289 -0.09939,0.255155 -0.242237,0.483726 -0.310546,0.548829 0.06593,-0.06282 -0.411286,0.252774 -0.873047,0.460937 -0.461761,0.208163 -0.976412,0.409427 -1.261719,0.509766 -0.858028,0.301873 -2.762423,0.675781 -3.591797,0.675781 -0.659138,0 -0.709677,-0.06034 -1.537109,0.04297 -0.226244,0.02828 -0.426941,0.06761 -0.572266,0.09961 -0.07266,0.016 -0.126729,0.02867 -0.179687,0.04297 -0.01324,0.0036 -0.02694,0.0057 -0.04687,0.01172 -0.01994,0.0061 -0.153155,0.06194 -0.154297,0.0625 -1.43e-4,6.9e-5 -0.08194,0.04291 -0.08203,0.04297 -9.6e-5,5.9e-5 -0.169871,0.130812 -0.169921,0.13086 -2.6e-5,2.4e-5 0.689453,0.724609 0.689453,0.724609 0,0 -0.279331,0.960928 -0.279297,0.960938 3.4e-5,9e-6 0.12886,0.02734 0.128906,0.02734 9.2e-5,1.4e-5 0.134626,0.01172 0.134766,0.01172 2.79e-4,5e-6 0.08592,-0.002 0.107422,-0.0039 0.08601,-0.0077 0.08948,-0.01222 0.107421,-0.01563 a 1,1 0 0 0 0.328125,-0.132813 c -6.74e-4,5.17e-4 -0.0078,0.0059 -0.0078,0.0059 9.7e-5,-5.9e-5 -0.08022,0.04499 -0.08008,0.04492 0.0011,-5.58e-4 -0.128644,0.05104 -0.140625,0.05469 0.0098,-0.0025 0.03306,-0.0066 0.07422,-0.01563 0.09772,-0.02152 0.251677,-0.05099 0.390625,-0.06836 0.741054,-0.09253 0.512551,-0.02734 1.289062,-0.02734 1.301502,0 3.095043,-0.380662 4.255859,-0.789063 0.354604,-0.124709 0.89213,-0.334335 1.419922,-0.572265 0.527793,-0.23793 0.976636,-0.404384 1.431641,-0.837891 0.429799,-0.409624 0.64114,-0.874735 0.794922,-1.269531 0.153459,-0.393968 0.246828,-0.762378 0.271484,-0.841797 v -0.002 c -0.02441,0.07794 0.0013,-0.0025 0.02148,-0.06445 0.02078,-0.06362 0.04682,-0.149549 0.06836,-0.253906 0.04308,-0.208715 0.07882,-0.499494 -0.0098,-0.851563 -0.10846,-0.428532 -0.314031,-0.836947 -0.626953,-1.119141 -0.312921,-0.282193 -0.634225,-0.390965 -0.863281,-0.470703 -0.497226,-0.173087 -1.188533,-0.296048 -1.998047,-0.46289 -0.809513,-0.166843 -1.672491,-0.346531 -1.978516,-0.431641 -0.02111,-0.0059 -0.03573,-0.01576 -0.04102,-0.01953 -0.0041,-0.0041 -0.02331,-0.02136 -0.02344,-0.02148 -1.31e-4,-1.23e-4 -0.134713,-0.107387 -0.134765,-0.107421 a 1,1 0 0 0 -0.751953,-0.140625 z m -3.871094,6.414062 c -1.4e-4,-2e-6 0.132904,0.01173 0.132812,0.01172 -4.5e-5,-7e-6 0.12894,0.02735 0.128907,0.02734 -9e-6,-3e-6 -0.04253,0.149642 -0.06836,0.238281 a 1,1 0 0 0 -0.384765,-0.261719 c 0.0077,-0.0015 0.0037,-0.0043 0.08594,-0.01172 0.02056,-0.0018 0.105748,-0.0039 0.105469,-0.0039 z M 45.802734,32.75 c 1.67e-4,1.74e-4 0.0078,0.0078 0.0078,0.0078 2.3e-5,-2.1e-5 -0.03837,0.02965 -0.07617,0.05859 A 1,1 0 0 0 45.802734,32.75 Z" id="path1033"/>
				<path style="color:#000000;vector-effect:non-scaling-stroke;fill:#776f6f;fill-opacity:0.453608;stroke:#ff0009;stroke-width:0.264583;stroke-linecap:round;stroke-linejoin:round;stroke-dasharray:none;stroke-opacity:1;-inkscape-stroke:hairline" d="m 49.28125,24.130859 a 1,1 0 0 0 -1.09375,0.898438 c -0.0056,0.05776 0.02179,-0.04339 0.05664,-0.08008 0.03485,-0.03669 0.01922,-0.01088 -0.101563,0.04883 v -0.002 c 0.1651,-0.08154 -0.09784,0.01988 -0.339844,0.06641 -0.241998,0.04652 -0.503095,0.07913 -0.83789,0.210937 v -0.002 c -0.561361,0.220854 -1.112886,0.44455 -1.63086,0.828125 -0.517974,0.383576 -0.969343,0.951789 -1.228515,1.667969 -0.17305,0.478324 -0.266627,0.92195 -0.28125,1.408203 -0.02968,0.971434 0.229687,2.530889 0.326172,3.041016 a 1,1 0 0 0 1.169921,0.796875 1,1 0 0 0 0.794922,-1.167969 c 0.01064,0.05628 -0.295579,-2.459996 -0.291015,-2.609375 0.01,-0.331082 0.02629,-0.411702 0.162109,-0.787109 0.139226,-0.384728 0.285535,-0.555889 0.537109,-0.742188 0.251575,-0.186298 0.643036,-0.365391 1.173829,-0.574219 -0.01188,0.0047 0.236434,-0.06013 0.482421,-0.107421 0.245988,-0.04729 0.448421,-0.03623 0.84961,-0.234375 a 1.0001,1.0001 0 0 0 0,-0.002 c 0.150984,-0.07463 0.410197,-0.19371 0.664062,-0.460937 0.253866,-0.267227 0.443319,-0.685203 0.484375,-1.105469 A 1,1 0 0 0 49.28125,24.130859 Z" id="path1025"/>
				<path style="color:#000000;vector-effect:non-scaling-stroke;fill:#776f6f;fill-opacity:0.453608;stroke:#ff0009;stroke-width:0.264583;stroke-linecap:round;stroke-linejoin:round;stroke-dasharray:none;stroke-opacity:1;-inkscape-stroke:hairline" d="m 39.542969,13.138672 a 1,1 0 0 0 -1.056641,0.9375 1,1 0 0 0 0.9375,1.058594 c 0.874687,0.05264 1.564982,0.218618 2.466797,0.46289 1.057915,0.286501 2.172992,1.027494 3.044922,1.810547 1.149156,1.032204 1.998756,2.077262 2.447265,3.34375 0.322518,0.910499 0.654962,2.367143 0.673829,2.992188 0.0127,0.411279 0.08029,0.712752 0.111328,0.876953 0.03103,0.1642 0.04033,0.196696 0.01953,0.408203 a 1,1 0 0 0 0.898437,1.091797 1,1 0 0 0 1.091797,-0.896485 c 0.03974,-0.403997 -0.0027,-0.75106 -0.04492,-0.974609 -0.04225,-0.223549 -0.06854,-0.319338 -0.07617,-0.566406 -0.03328,-1.102514 -0.405029,-2.515446 -0.789063,-3.59961 -0.598559,-1.690192 -1.708769,-3.009505 -2.994141,-4.164062 -1.022353,-0.918144 -2.335027,-1.839135 -3.859375,-2.251953 -0.928964,-0.251626 -1.800606,-0.464876 -2.871093,-0.529297 z" id="path1023"/>
				<path style="color:#000000;vector-effect:non-scaling-stroke;fill:#776f6f;fill-opacity:0.453608;stroke:#ff0009;stroke-width:0.264583;stroke-linecap:round;stroke-linejoin:round;stroke-dasharray:none;stroke-opacity:1;-inkscape-stroke:hairline" d="m 39.542969,13.138672 c -2.188363,-0.13176 -4.338208,0.184905 -6.339844,1.259766 -1.490641,0.800473 -2.698885,1.835933 -3.789063,3.197265 -0.667156,0.832906 -1.083204,1.719443 -1.470703,2.560547 -0.59444,1.29025 -0.531785,2.302276 -0.685547,3.238281 -0.262256,1.595642 0.04273,2.871425 0.326172,4.146485 0.293132,1.318997 0.966989,2.183789 1.1875,2.90039 0.257564,0.83856 0.336523,0.856766 0.220703,1.371094 a 1,1 0 0 0 0.75586,1.195312 1,1 0 0 0 1.195312,-0.755859 c 0.206832,-0.918489 -0.02113,-1.619547 -0.259765,-2.396484 a 1.0001,1.0001 0 0 0 0,-0.002 c -0.366433,-1.190807 -0.9761,-1.972581 -1.148438,-2.748047 -0.286878,-1.290522 -0.499043,-2.192319 -0.302734,-3.386719 0.194324,-1.182928 0.126177,-1.853864 0.527344,-2.724609 0.379906,-0.824625 0.731039,-1.544437 1.214843,-2.148438 0.954096,-1.191403 1.913454,-2.007678 3.175782,-2.685547 1.625758,-0.873017 3.348574,-1.141285 5.273437,-1.02539 a 1,1 0 0 0 1.058594,-0.9375 1,1 0 0 0 -0.939453,-1.058594 z" id="path1021"/>
				<path style="color:#000000;vector-effect:non-scaling-stroke;fill:#776f6f;fill-opacity:0.453608;stroke:#ff0009;stroke-width:0.264583;stroke-linecap:round;stroke-linejoin:round;stroke-dasharray:none;stroke-opacity:1;-inkscape-stroke:hairline" d="M 5.1933594,24.255859 C 4.7374715,24.219476 4.2647909,24.406453 4,24.652344 3.7352091,24.898234 3.6333199,25.169755 3.6054688,25.242187 a 1,1 0 0 0 0.5742187,1.292969 1,1 0 0 0 0.9921875,-0.257812 c 5.382e-4,2.19e-4 0.00338,-2.13e-4 0.00391,0 0.019608,0.0079 -0.1304416,-0.0049 0.2714844,0.11914 0.4292008,0.132357 0.5801461,0.09833 0.8203125,0.166016 0.2401664,0.06769 0.5630717,0.195582 1.0605469,0.580078 1.3739502,1.062204 3.0706712,2.839588 5.0722662,3.724609 1.035265,0.457602 2.106447,0.756106 3.146484,1.013672 1.876359,0.464828 3.783134,0.902828 5.691406,1.28711 1.563173,0.314829 3.165803,0.535774 4.75,0.785156 v -0.002 c 0.644509,0.101557 1.452853,0.185172 2.048828,0.179687 0.241313,-0.0023 0.773938,0.06211 1.402344,-0.142578 0.628406,-0.204686 1.305725,-0.855877 1.503906,-1.736328 A 1,1 0 0 0 30.1875,31.056641 1,1 0 0 0 28.992187,31.8125 c -0.07693,0.34177 -0.05671,0.235927 -0.171875,0.273437 -0.11516,0.03751 -0.41363,0.04116 -0.802734,0.04492 -0.358814,0.0033 -1.184583,-0.07043 -1.716797,-0.154297 a 1.0001,1.0001 0 0 0 -0.002,0 c -1.610021,-0.253453 -3.1871,-0.469726 -4.665969,-0.767576 -1.872965,-0.377171 -3.751767,-0.808363 -5.605468,-1.267578 -0.99669,-0.246831 -1.956259,-0.523237 -2.81836,-0.904297 C 11.781208,28.405806 10.108102,26.764515 8.5507813,25.560547 7.8789297,25.041276 7.285386,24.770544 6.8105469,24.636719 6.3357078,24.502894 5.9727912,24.464541 6.0371094,24.484375 6.3734425,24.588178 6.1059884,24.496785 5.9257812,24.423828 5.7455741,24.350871 5.4923178,24.27954 5.1933594,24.255859 Z m 0.2792968,1.705078 c 0.00273,-0.0071 -0.021884,0.07319 -0.1113281,0.15625 -0.016674,0.01548 -0.037946,0.01222 -0.060547,0.02539 a 1,1 0 0 0 0.171875,-0.181641 z" id="path1019"/>
				<path style="color:#000000;vector-effect:non-scaling-stroke;fill:#776f6f;fill-opacity:0.453608;stroke:#ff0009;stroke-width:0.264583;stroke-linecap:round;stroke-linejoin:round;stroke-dasharray:none;stroke-opacity:1;-inkscape-stroke:hairline" d="m 4.8984375,24.667969 a 1,1 0 0 0 -1.2929687,0.576172 c -0.2520699,0.657077 -0.121005,0.988866 -0.080078,1.503906 0.040927,0.51504 0.1010944,1.103369 0.1191407,1.703125 0.0668,2.219607 0.5297586,5.062715 0.9609374,7.228515 0.1994662,1.002342 0.389285,1.94625 0.5957032,2.982422 0.4547794,2.28564 0.7284032,5.2795 1.8691406,7.75586 0.5896431,1.279849 1.2263263,2.611192 2.1503906,3.802734 1.9280147,2.486264 4.4190377,3.763045 7.1699217,4.75 a 1,1 0 0 0 1.279297,-0.603516 1,1 0 0 0 -0.603516,-1.279296 C 14.463561,52.154048 12.426433,51.092446 10.800781,48.996094 10.050935,48.029198 9.4659485,46.837325 8.8867188,45.580078 7.9624699,43.573681 7.6497563,40.711633 7.1640625,38.271484 a 1.0001,1.0001 0 0 0 0,-0.002 C 6.9567991,37.229116 6.7649457,36.286747 6.5664062,35.289062 6.148016,33.187499 5.702356,30.378855 5.6425781,28.392578 5.6217944,27.701841 5.5575099,27.067782 5.5195312,26.589844 5.4815526,26.111906 5.5795162,25.680429 5.4726562,25.958984 A 1,1 0 0 0 4.8984375,24.667969 Z" id="path2563"/>
				<path style="color:#000000;vector-effect:non-scaling-stroke;fill:#776f6f;fill-opacity:0.453608;stroke:#ff0009;stroke-width:0.264583;stroke-linecap:round;stroke-linejoin:round;stroke-dasharray:none;stroke-opacity:1;-inkscape-stroke:hairline" d="m 39.126953,53.007812 c -0.567333,0.216754 -1.102521,0.274154 -1.871094,0.421875 -1.954574,0.375526 -4.443247,0.201172 -6.716797,0.201172 -3.833286,0 -8.332418,0.453187 -11.738281,-0.201172 -0.791942,-0.152139 -1.163199,-0.136902 -1.734375,-0.341796 a 1,1 0 0 0 -1.279297,0.603515 1,1 0 0 0 0.603516,1.279297 c 0.845008,0.303125 1.411392,0.304748 2.03125,0.423828 3.87535,0.74456 8.455209,0.236328 12.117187,0.236328 2.155524,0 4.738771,0.216126 7.09375,-0.236328 0.673549,-0.129458 1.373316,-0.201005 2.207032,-0.519531 a 1,1 0 0 0 0.578125,-1.291016 1,1 0 0 0 -1.291016,-0.576172 z" id="path1015"/>
				<path style="color:#000000;vector-effect:non-scaling-stroke;fill:#776f6f;fill-opacity:0.453608;stroke:#ff0009;stroke-width:0.264583;stroke-linecap:round;stroke-linejoin:round;stroke-dasharray:none;stroke-opacity:1;-inkscape-stroke:hairline" d="m 45.433594,37.171875 a 1,1 0 0 0 -0.777344,1.181641 c 0.29352,1.423994 0.814241,2.709802 0.886719,3.789062 0.03466,0.521666 0.1192,0.954329 0.152343,1.287109 0.02267,0.228637 0.0078,0.335007 0.0078,0.685547 0,0.388076 0.01667,0.441328 -0.0078,0.685547 a 1.0001,1.0001 0 0 0 0,0.002 c -0.02578,0.261066 -0.365137,1.835711 -0.517578,2.292969 -0.31314,0.939645 -0.769892,1.752195 -1.371093,2.527344 -1.250347,1.612413 -2.826298,2.676816 -4.679688,3.384765 a 1,1 0 0 0 -0.578125,1.291016 1,1 0 0 0 1.291016,0.576172 c 2.13037,-0.813749 4.054658,-2.101067 5.546875,-4.025391 0.717851,-0.925549 1.299818,-1.953862 1.689453,-3.123047 C 47.328105,46.970868 47.614059,45.721814 47.685547,45 v -0.002 c 0.03691,-0.369838 0.01758,-0.561546 0.01758,-0.882813 0,-0.280378 0.01947,-0.509085 -0.01758,-0.882812 -0.0457,-0.458863 -0.122067,-0.855171 -0.146485,-1.222656 a 1.0001,1.0001 0 0 0 0,-0.002 c -0.103923,-1.54742 -0.688531,-2.907499 -0.925781,-4.0585 a 1,1 0 0 0 -1.179687,-0.777344 z" id="path1013"/>
				<path style="color:#000000;vector-effect:non-scaling-stroke;fill:#776f6f;fill-opacity:0.453608;stroke:#ff0009;stroke-width:0.264583;stroke-linecap:round;stroke-linejoin:round;stroke-dasharray:none;stroke-opacity:1;-inkscape-stroke:hairline" d="m 44.976562,31.1875 a 1,1 0 0 0 -1,1 v 1.884766 c 0,1.523505 0.420005,3.02063 0.679688,4.28125 a 1,1 0 0 0 1.179687,0.777343 1,1 0 0 0 0.777344,-1.179687 C 46.335557,36.602969 45.976562,35.204735 45.976562,34.072266 V 32.1875 a 1,1 0 0 0 -1,-1 z" id="path302"/>
				<path style="vector-effect:non-scaling-stroke;fill:#bfbfbf;fill-opacity:1;fill-rule:evenodd;stroke:#ae1515;stroke-width:0.264583;stroke-linecap:round;stroke-linejoin:round;stroke-dasharray:none;stroke-opacity:1;-inkscape-stroke:hairline" d="m 43.762252,22.489014 a 1.9548239,1.8540596 0 0 1 -1.954791,1.854056 1.9548239,1.8540596 0 0 1 -1.954879,-1.854056 1.9548239,1.8540596 0 0 1 1.954879,-1.854067 1.9548239,1.8540596 0 0 1 1.954791,1.854067 z" id="path910"/>
			</g>
		
			<g id="Disc 2" transform="translate(-17.461335,1.1011653)">
				<g inkscape:label="abc" id="layer1-2-9" transform="matrix(0.40672243,0,0,0.40672243,52.668601,50.79767)">
					<path style="color:#000000;vector-effect:non-scaling-stroke;fill:#776f6f;fill-opacity:0.453608;stroke:#ff0009;stroke-width:0.264583;stroke-linecap:round;stroke-linejoin:round;stroke-dasharray:none;stroke-opacity:1;-inkscape-stroke:hairline" d="m 16.804687,39.039062 a 1,1 0 0 0 -0.921874,1.072266 c 0.05364,0.701583 0.195395,1.811377 0.603515,2.697266 0.445585,0.967299 0.926416,2.093016 1.746094,3.044922 0.846339,0.982703 1.950133,1.723842 3.167969,2.177734 0.847892,0.316003 1.580262,0.464375 2.355468,0.615234 3.135031,0.609171 6.969138,0.382372 9.919922,-0.08203 0.920782,-0.144971 2.004249,-0.27885 3,-0.626953 0.484414,-0.169376 0.977071,-0.313836 1.488281,-0.626953 0.511211,-0.313117 0.985472,-0.816133 1.324219,-1.492188 0.347177,-0.692422 0.402344,-1.314928 0.402344,-1.859375 a 1,1 0 0 0 -1,-1 1,1 0 0 0 -1,1 c 0,0.519893 0.03668,0.513828 -0.189453,0.964844 -0.204236,0.407604 -0.35474,0.540471 -0.582031,0.679688 -0.227292,0.139216 -0.586257,0.264452 -1.103516,0.445312 -0.700459,0.244873 -1.69739,0.390972 -2.650391,0.541016 -2.776764,0.437014 -6.495959,0.624336 -9.226562,0.09375 -0.764352,-0.148747 -1.348971,-0.270152 -2.039063,-0.527344 -0.919637,-0.342753 -1.74468,-0.902757 -2.351562,-1.607422 -0.545683,-0.633711 -0.991633,-1.593254 -1.445313,-2.578125 -0.139579,-0.302978 -0.390589,-1.551413 -0.425781,-2.011719 a 1,1 0 0 0 -1.072266,-0.919923 z" id="path1041-1"/>
					<path style="color:#000000;vector-effect:non-scaling-stroke;fill:#776f6f;fill-opacity:0.453608;stroke:#ff0009;stroke-width:0.264583;stroke-linecap:round;stroke-linejoin:round;stroke-dasharray:none;stroke-opacity:1;-inkscape-stroke:hairline" d="m 17.792969,37.074219 c -0.886086,0.172287 -1.576907,0.823465 -1.796875,1.474609 -0.219969,0.651144 -0.140187,1.210051 -0.113281,1.5625 a 1,1 0 0 0 1.074218,0.921875 1,1 0 0 0 0.919922,-1.074219 c -0.02771,-0.362924 -0.01977,-0.672496 0.01367,-0.771484 0.03344,-0.09899 -0.07757,-0.08024 0.283203,-0.150391 0.270939,-0.05275 0.08828,-0.04037 0.591797,0.04102 1.071574,0.173677 3.376042,0.380021 4.398437,0.541016 1.81321,0.285325 3.629422,0.630675 5.492188,0.923828 2.045034,0.321968 4.609024,0.62138 6.476562,1.144531 a 1.0001,1.0001 0 0 0 0.002,0 c 0.583316,0.163278 0.915285,0.196003 1.308593,0.353516 0.361224,0.144679 0.624915,0.324062 0.947266,0.623046 0.276594,0.256554 0.34746,0.365353 0.427734,0.726563 0.05546,0.248875 0.07227,0.350884 0.07227,0.568359 a 1,1 0 0 0 1,1 1,1 0 0 0 1,-1 c 0,-0.370498 -0.05034,-0.693169 -0.119141,-1.001953 -0.155979,-0.701863 -0.536455,-1.311691 -1.019531,-1.759765 -0.4435,-0.411353 -0.951613,-0.768214 -1.564453,-1.013672 -0.636485,-0.254901 -1.095729,-0.304887 -1.513672,-0.421875 -2.124938,-0.595256 -4.735115,-0.882903 -6.707031,-1.19336 -1.821148,-0.286602 -3.637162,-0.631922 -5.492188,-0.923828 -1.202338,-0.189329 -3.539338,-0.403358 -4.388672,-0.541015 a 1,1 0 0 0 -0.002,0 c -0.488313,-0.07893 -0.869541,-0.11135 -1.291015,-0.0293 z" id="path1027-4"/>
					<path style="color:#000000;vector-effect:non-scaling-stroke;fill:#776f6f;fill-opacity:0.453608;stroke:#ff0009;stroke-width:0.264583;stroke-linecap:round;stroke-linejoin:round;stroke-dasharray:none;stroke-opacity:1;-inkscape-stroke:hairline" d="m 49.009766,24.619141 a 1,1 0 0 0 -0.632813,0.43164 1,1 0 0 0 0.291016,1.382813 c 5.2e-5,3.4e-5 -0.130729,-0.100368 -0.134766,-0.103516 0.01154,0.01128 0.02155,0.0209 0.03711,0.03516 0.04626,0.04239 0.109514,0.09665 0.1875,0.152344 0.155974,0.111383 0.37834,0.237792 0.667969,0.318359 0.494161,0.137434 1.304418,0.296988 2.109375,0.462891 0.804957,0.165903 1.670167,0.368781 1.744141,0.394531 0.190195,0.06621 0.215467,0.0932 0.183594,0.06445 -0.02087,-0.01882 0.0015,0.04177 0.01563,0.08203 -0.0022,0.01057 -0.0055,0.02395 -0.0098,0.03711 -0.0043,0.01316 0.0061,-0.02488 -0.0293,0.08789 a 1.0001,1.0001 0 0 0 -0.002,0.002 c -0.06893,0.221233 -0.127174,0.457736 -0.226563,0.71289 -0.09939,0.255155 -0.242237,0.483726 -0.310546,0.548829 0.06593,-0.06282 -0.411286,0.252774 -0.873047,0.460937 -0.461761,0.208163 -0.976412,0.409427 -1.261719,0.509766 -0.858028,0.301873 -2.762423,0.675781 -3.591797,0.675781 -0.659138,0 -0.709677,-0.06034 -1.537109,0.04297 -0.226244,0.02828 -0.426941,0.06761 -0.572266,0.09961 -0.07266,0.016 -0.126729,0.02867 -0.179687,0.04297 -0.01324,0.0036 -0.02694,0.0057 -0.04687,0.01172 -0.01994,0.0061 -0.153155,0.06194 -0.154297,0.0625 -1.43e-4,6.9e-5 -0.08194,0.04291 -0.08203,0.04297 -9.6e-5,5.9e-5 -0.169871,0.130812 -0.169921,0.13086 -2.6e-5,2.4e-5 0.689453,0.724609 0.689453,0.724609 0,0 -0.279331,0.960928 -0.279297,0.960938 3.4e-5,9e-6 0.12886,0.02734 0.128906,0.02734 9.2e-5,1.4e-5 0.134626,0.01172 0.134766,0.01172 2.79e-4,5e-6 0.08592,-0.002 0.107422,-0.0039 0.08601,-0.0077 0.08948,-0.01222 0.107421,-0.01563 a 1,1 0 0 0 0.328125,-0.132813 c -6.74e-4,5.17e-4 -0.0078,0.0059 -0.0078,0.0059 9.7e-5,-5.9e-5 -0.08022,0.04499 -0.08008,0.04492 0.0011,-5.58e-4 -0.128644,0.05104 -0.140625,0.05469 0.0098,-0.0025 0.03306,-0.0066 0.07422,-0.01563 0.09772,-0.02152 0.251677,-0.05099 0.390625,-0.06836 0.741054,-0.09253 0.512551,-0.02734 1.289062,-0.02734 1.301502,0 3.095043,-0.380662 4.255859,-0.789063 0.354604,-0.124709 0.89213,-0.334335 1.419922,-0.572265 0.527793,-0.23793 0.976636,-0.404384 1.431641,-0.837891 0.429799,-0.409624 0.64114,-0.874735 0.794922,-1.269531 0.153459,-0.393968 0.246828,-0.762378 0.271484,-0.841797 v -0.002 c -0.02441,0.07794 0.0013,-0.0025 0.02148,-0.06445 0.02078,-0.06362 0.04682,-0.149549 0.06836,-0.253906 0.04308,-0.208715 0.07882,-0.499494 -0.0098,-0.851563 -0.10846,-0.428532 -0.314031,-0.836947 -0.626953,-1.119141 -0.312921,-0.282193 -0.634225,-0.390965 -0.863281,-0.470703 -0.497226,-0.173087 -1.188533,-0.296048 -1.998047,-0.46289 -0.809513,-0.166843 -1.672491,-0.346531 -1.978516,-0.431641 -0.02111,-0.0059 -0.03573,-0.01576 -0.04102,-0.01953 -0.0041,-0.0041 -0.02331,-0.02136 -0.02344,-0.02148 -1.31e-4,-1.23e-4 -0.134713,-0.107387 -0.134765,-0.107421 a 1,1 0 0 0 -0.751953,-0.140625 z m -3.871094,6.414062 c -1.4e-4,-2e-6 0.132904,0.01173 0.132812,0.01172 -4.5e-5,-7e-6 0.12894,0.02735 0.128907,0.02734 -9e-6,-3e-6 -0.04253,0.149642 -0.06836,0.238281 a 1,1 0 0 0 -0.384765,-0.261719 c 0.0077,-0.0015 0.0037,-0.0043 0.08594,-0.01172 0.02056,-0.0018 0.105748,-0.0039 0.105469,-0.0039 z M 45.802734,32.75 c 1.67e-4,1.74e-4 0.0078,0.0078 0.0078,0.0078 2.3e-5,-2.1e-5 -0.03837,0.02965 -0.07617,0.05859 A 1,1 0 0 0 45.802734,32.75 Z" id="path1033-9"/>
					<path style="color:#000000;vector-effect:non-scaling-stroke;fill:#776f6f;fill-opacity:0.453608;stroke:#ff0009;stroke-width:0.264583;stroke-linecap:round;stroke-linejoin:round;stroke-dasharray:none;stroke-opacity:1;-inkscape-stroke:hairline" d="m 49.28125,24.130859 a 1,1 0 0 0 -1.09375,0.898438 c -0.0056,0.05776 0.02179,-0.04339 0.05664,-0.08008 0.03485,-0.03669 0.01922,-0.01088 -0.101563,0.04883 v -0.002 c 0.1651,-0.08154 -0.09784,0.01988 -0.339844,0.06641 -0.241998,0.04652 -0.503095,0.07913 -0.83789,0.210937 v -0.002 c -0.561361,0.220854 -1.112886,0.44455 -1.63086,0.828125 -0.517974,0.383576 -0.969343,0.951789 -1.228515,1.667969 -0.17305,0.478324 -0.266627,0.92195 -0.28125,1.408203 -0.02968,0.971434 0.229687,2.530889 0.326172,3.041016 a 1,1 0 0 0 1.169921,0.796875 1,1 0 0 0 0.794922,-1.167969 c 0.01064,0.05628 -0.295579,-2.459996 -0.291015,-2.609375 0.01,-0.331082 0.02629,-0.411702 0.162109,-0.787109 0.139226,-0.384728 0.285535,-0.555889 0.537109,-0.742188 0.251575,-0.186298 0.643036,-0.365391 1.173829,-0.574219 -0.01188,0.0047 0.236434,-0.06013 0.482421,-0.107421 0.245988,-0.04729 0.448421,-0.03623 0.84961,-0.234375 a 1.0001,1.0001 0 0 0 0,-0.002 c 0.150984,-0.07463 0.410197,-0.19371 0.664062,-0.460937 0.253866,-0.267227 0.443319,-0.685203 0.484375,-1.105469 A 1,1 0 0 0 49.28125,24.130859 Z" id="path1025-5"/>
					<path style="color:#000000;vector-effect:non-scaling-stroke;fill:#776f6f;fill-opacity:0.453608;stroke:#ff0009;stroke-width:0.264583;stroke-linecap:round;stroke-linejoin:round;stroke-dasharray:none;stroke-opacity:1;-inkscape-stroke:hairline" d="m 39.542969,13.138672 a 1,1 0 0 0 -1.056641,0.9375 1,1 0 0 0 0.9375,1.058594 c 0.874687,0.05264 1.564982,0.218618 2.466797,0.46289 1.057915,0.286501 2.172992,1.027494 3.044922,1.810547 1.149156,1.032204 1.998756,2.077262 2.447265,3.34375 0.322518,0.910499 0.654962,2.367143 0.673829,2.992188 0.0127,0.411279 0.08029,0.712752 0.111328,0.876953 0.03103,0.1642 0.04033,0.196696 0.01953,0.408203 a 1,1 0 0 0 0.898437,1.091797 1,1 0 0 0 1.091797,-0.896485 c 0.03974,-0.403997 -0.0027,-0.75106 -0.04492,-0.974609 -0.04225,-0.223549 -0.06854,-0.319338 -0.07617,-0.566406 -0.03328,-1.102514 -0.405029,-2.515446 -0.789063,-3.59961 -0.598559,-1.690192 -1.708769,-3.009505 -2.994141,-4.164062 -1.022353,-0.918144 -2.335027,-1.839135 -3.859375,-2.251953 -0.928964,-0.251626 -1.800606,-0.464876 -2.871093,-0.529297 z" id="path1023-5"/>
					<path style="color:#000000;vector-effect:non-scaling-stroke;fill:#776f6f;fill-opacity:0.453608;stroke:#ff0009;stroke-width:0.264583;stroke-linecap:round;stroke-linejoin:round;stroke-dasharray:none;stroke-opacity:1;-inkscape-stroke:hairline" d="m 39.542969,13.138672 c -2.188363,-0.13176 -4.338208,0.184905 -6.339844,1.259766 -1.490641,0.800473 -2.698885,1.835933 -3.789063,3.197265 -0.667156,0.832906 -1.083204,1.719443 -1.470703,2.560547 -0.59444,1.29025 -0.531785,2.302276 -0.685547,3.238281 -0.262256,1.595642 0.04273,2.871425 0.326172,4.146485 0.293132,1.318997 0.966989,2.183789 1.1875,2.90039 0.257564,0.83856 0.336523,0.856766 0.220703,1.371094 a 1,1 0 0 0 0.75586,1.195312 1,1 0 0 0 1.195312,-0.755859 c 0.206832,-0.918489 -0.02113,-1.619547 -0.259765,-2.396484 a 1.0001,1.0001 0 0 0 0,-0.002 c -0.366433,-1.190807 -0.9761,-1.972581 -1.148438,-2.748047 -0.286878,-1.290522 -0.499043,-2.192319 -0.302734,-3.386719 0.194324,-1.182928 0.126177,-1.853864 0.527344,-2.724609 0.379906,-0.824625 0.731039,-1.544437 1.214843,-2.148438 0.954096,-1.191403 1.913454,-2.007678 3.175782,-2.685547 1.625758,-0.873017 3.348574,-1.141285 5.273437,-1.02539 a 1,1 0 0 0 1.058594,-0.9375 1,1 0 0 0 -0.939453,-1.058594 z" id="path1021-6"/>
					<path style="color:#000000;vector-effect:non-scaling-stroke;fill:#776f6f;fill-opacity:0.453608;stroke:#ff0009;stroke-width:0.264583;stroke-linecap:round;stroke-linejoin:round;stroke-dasharray:none;stroke-opacity:1;-inkscape-stroke:hairline" d="M 5.1933594,24.255859 C 4.7374715,24.219476 4.2647909,24.406453 4,24.652344 3.7352091,24.898234 3.6333199,25.169755 3.6054688,25.242187 a 1,1 0 0 0 0.5742187,1.292969 1,1 0 0 0 0.9921875,-0.257812 c 5.382e-4,2.19e-4 0.00338,-2.13e-4 0.00391,0 0.019608,0.0079 -0.1304416,-0.0049 0.2714844,0.11914 0.4292008,0.132357 0.5801461,0.09833 0.8203125,0.166016 0.2401664,0.06769 0.5630717,0.195582 1.0605469,0.580078 1.3739502,1.062204 3.0706712,2.839588 5.0722662,3.724609 1.035265,0.457602 2.106447,0.756106 3.146484,1.013672 1.876359,0.464828 3.783134,0.902828 5.691406,1.28711 1.563173,0.314829 3.165803,0.535774 4.75,0.785156 v -0.002 c 0.644509,0.101557 1.452853,0.185172 2.048828,0.179687 0.241313,-0.0023 0.773938,0.06211 1.402344,-0.142578 0.628406,-0.204686 1.305725,-0.855877 1.503906,-1.736328 A 1,1 0 0 0 30.1875,31.056641 1,1 0 0 0 28.992187,31.8125 c -0.07693,0.34177 -0.05671,0.235927 -0.171875,0.273437 -0.11516,0.03751 -0.41363,0.04116 -0.802734,0.04492 -0.358814,0.0033 -1.184583,-0.07043 -1.716797,-0.154297 a 1.0001,1.0001 0 0 0 -0.002,0 c -1.610021,-0.253453 -3.1871,-0.469726 -4.665969,-0.767576 -1.872965,-0.377171 -3.751767,-0.808363 -5.605468,-1.267578 -0.99669,-0.246831 -1.956259,-0.523237 -2.81836,-0.904297 C 11.781208,28.405806 10.108102,26.764515 8.5507813,25.560547 7.8789297,25.041276 7.285386,24.770544 6.8105469,24.636719 6.3357078,24.502894 5.9727912,24.464541 6.0371094,24.484375 6.3734425,24.588178 6.1059884,24.496785 5.9257812,24.423828 5.7455741,24.350871 5.4923178,24.27954 5.1933594,24.255859 Z m 0.2792968,1.705078 c 0.00273,-0.0071 -0.021884,0.07319 -0.1113281,0.15625 -0.016674,0.01548 -0.037946,0.01222 -0.060547,0.02539 a 1,1 0 0 0 0.171875,-0.181641 z" id="path1019-0"/>
					<path style="color:#000000;vector-effect:non-scaling-stroke;fill:#776f6f;fill-opacity:0.453608;stroke:#ff0009;stroke-width:0.264583;stroke-linecap:round;stroke-linejoin:round;stroke-dasharray:none;stroke-opacity:1;-inkscape-stroke:hairline" d="m 4.8984375,24.667969 a 1,1 0 0 0 -1.2929687,0.576172 c -0.2520699,0.657077 -0.121005,0.988866 -0.080078,1.503906 0.040927,0.51504 0.1010944,1.103369 0.1191407,1.703125 0.0668,2.219607 0.5297586,5.062715 0.9609374,7.228515 0.1994662,1.002342 0.389285,1.94625 0.5957032,2.982422 0.4547794,2.28564 0.7284032,5.2795 1.8691406,7.75586 0.5896431,1.279849 1.2263263,2.611192 2.1503906,3.802734 1.9280147,2.486264 4.4190377,3.763045 7.1699217,4.75 a 1,1 0 0 0 1.279297,-0.603516 1,1 0 0 0 -0.603516,-1.279296 C 14.463561,52.154048 12.426433,51.092446 10.800781,48.996094 10.050935,48.029198 9.4659485,46.837325 8.8867188,45.580078 7.9624699,43.573681 7.6497563,40.711633 7.1640625,38.271484 a 1.0001,1.0001 0 0 0 0,-0.002 C 6.9567991,37.229116 6.7649457,36.286747 6.5664062,35.289062 6.148016,33.187499 5.702356,30.378855 5.6425781,28.392578 5.6217944,27.701841 5.5575099,27.067782 5.5195312,26.589844 5.4815526,26.111906 5.5795162,25.680429 5.4726562,25.958984 A 1,1 0 0 0 4.8984375,24.667969 Z" id="path2563-7"/>
					<path style="color:#000000;vector-effect:non-scaling-stroke;fill:#776f6f;fill-opacity:0.453608;stroke:#ff0009;stroke-width:0.264583;stroke-linecap:round;stroke-linejoin:round;stroke-dasharray:none;stroke-opacity:1;-inkscape-stroke:hairline" d="m 39.126953,53.007812 c -0.567333,0.216754 -1.102521,0.274154 -1.871094,0.421875 -1.954574,0.375526 -4.443247,0.201172 -6.716797,0.201172 -3.833286,0 -8.332418,0.453187 -11.738281,-0.201172 -0.791942,-0.152139 -1.163199,-0.136902 -1.734375,-0.341796 a 1,1 0 0 0 -1.279297,0.603515 1,1 0 0 0 0.603516,1.279297 c 0.845008,0.303125 1.411392,0.304748 2.03125,0.423828 3.87535,0.74456 8.455209,0.236328 12.117187,0.236328 2.155524,0 4.738771,0.216126 7.09375,-0.236328 0.673549,-0.129458 1.373316,-0.201005 2.207032,-0.519531 a 1,1 0 0 0 0.578125,-1.291016 1,1 0 0 0 -1.291016,-0.576172 z" id="path1015-5"/>
					<path style="color:#000000;vector-effect:non-scaling-stroke;fill:#776f6f;fill-opacity:0.453608;stroke:#ff0009;stroke-width:0.264583;stroke-linecap:round;stroke-linejoin:round;stroke-dasharray:none;stroke-opacity:1;-inkscape-stroke:hairline" d="m 45.433594,37.171875 a 1,1 0 0 0 -0.777344,1.181641 c 0.29352,1.423994 0.814241,2.709802 0.886719,3.789062 0.03466,0.521666 0.1192,0.954329 0.152343,1.287109 0.02267,0.228637 0.0078,0.335007 0.0078,0.685547 0,0.388076 0.01667,0.441328 -0.0078,0.685547 a 1.0001,1.0001 0 0 0 0,0.002 c -0.02578,0.261066 -0.365137,1.835711 -0.517578,2.292969 -0.31314,0.939645 -0.769892,1.752195 -1.371093,2.527344 -1.250347,1.612413 -2.826298,2.676816 -4.679688,3.384765 a 1,1 0 0 0 -0.578125,1.291016 1,1 0 0 0 1.291016,0.576172 c 2.13037,-0.813749 4.054658,-2.101067 5.546875,-4.025391 0.717851,-0.925549 1.299818,-1.953862 1.689453,-3.123047 C 47.328105,46.970868 47.614059,45.721814 47.685547,45 v -0.002 c 0.03691,-0.369838 0.01758,-0.561546 0.01758,-0.882813 0,-0.280378 0.01947,-0.509085 -0.01758,-0.882812 -0.0457,-0.458863 -0.122067,-0.855171 -0.146485,-1.222656 a 1.0001,1.0001 0 0 0 0,-0.002 c -0.103923,-1.54742 -0.688531,-2.907499 -0.925781,-4.0585 a 1,1 0 0 0 -1.179687,-0.777344 z" id="path1013-6"/>
					<path style="color:#000000;vector-effect:non-scaling-stroke;fill:#776f6f;fill-opacity:0.453608;stroke:#ff0009;stroke-width:0.264583;stroke-linecap:round;stroke-linejoin:round;stroke-dasharray:none;stroke-opacity:1;-inkscape-stroke:hairline" d="m 44.976562,31.1875 a 1,1 0 0 0 -1,1 v 1.884766 c 0,1.523505 0.420005,3.02063 0.679688,4.28125 a 1,1 0 0 0 1.179687,0.777343 1,1 0 0 0 0.777344,-1.179687 C 46.335557,36.602969 45.976562,35.204735 45.976562,34.072266 V 32.1875 a 1,1 0 0 0 -1,-1 z" id="path302-1"/>
					<path style="vector-effect:non-scaling-stroke;fill:#bfbfbf;fill-opacity:1;fill-rule:evenodd;stroke:#ae1515;stroke-width:0.264583;stroke-linecap:round;stroke-linejoin:round;stroke-dasharray:none;stroke-opacity:1;-inkscape-stroke:hairline" d="m 43.762252,22.489014 a 1.9548239,1.8540596 0 0 1 -1.954791,1.854056 1.9548239,1.8540596 0 0 1 -1.954879,-1.854056 1.9548239,1.8540596 0 0 1 1.954879,-1.854067 1.9548239,1.8540596 0 0 1 1.954791,1.854067 z" id="path910-8"/>
				</g>
			</g>
		
		<g inkscape:label="Disc 3" id="layer1-2-0" transform="matrix(0.40672243,0,0,0.40672243,43.135176,60.108769)">
			<path style="color:#000000;vector-effect:non-scaling-stroke;fill:#776f6f;fill-opacity:0.453608;stroke:#ff0009;stroke-width:0.264583;stroke-linecap:round;stroke-linejoin:round;stroke-dasharray:none;stroke-opacity:1;-inkscape-stroke:hairline" d="m 16.804687,39.039062 a 1,1 0 0 0 -0.921874,1.072266 c 0.05364,0.701583 0.195395,1.811377 0.603515,2.697266 0.445585,0.967299 0.926416,2.093016 1.746094,3.044922 0.846339,0.982703 1.950133,1.723842 3.167969,2.177734 0.847892,0.316003 1.580262,0.464375 2.355468,0.615234 3.135031,0.609171 6.969138,0.382372 9.919922,-0.08203 0.920782,-0.144971 2.004249,-0.27885 3,-0.626953 0.484414,-0.169376 0.977071,-0.313836 1.488281,-0.626953 0.511211,-0.313117 0.985472,-0.816133 1.324219,-1.492188 0.347177,-0.692422 0.402344,-1.314928 0.402344,-1.859375 a 1,1 0 0 0 -1,-1 1,1 0 0 0 -1,1 c 0,0.519893 0.03668,0.513828 -0.189453,0.964844 -0.204236,0.407604 -0.35474,0.540471 -0.582031,0.679688 -0.227292,0.139216 -0.586257,0.264452 -1.103516,0.445312 -0.700459,0.244873 -1.69739,0.390972 -2.650391,0.541016 -2.776764,0.437014 -6.495959,0.624336 -9.226562,0.09375 -0.764352,-0.148747 -1.348971,-0.270152 -2.039063,-0.527344 -0.919637,-0.342753 -1.74468,-0.902757 -2.351562,-1.607422 -0.545683,-0.633711 -0.991633,-1.593254 -1.445313,-2.578125 -0.139579,-0.302978 -0.390589,-1.551413 -0.425781,-2.011719 a 1,1 0 0 0 -1.072266,-0.919923 z" id="path1041-5"/>
			<path style="color:#000000;vector-effect:non-scaling-stroke;fill:#776f6f;fill-opacity:0.453608;stroke:#ff0009;stroke-width:0.264583;stroke-linecap:round;stroke-linejoin:round;stroke-dasharray:none;stroke-opacity:1;-inkscape-stroke:hairline" d="m 17.792969,37.074219 c -0.886086,0.172287 -1.576907,0.823465 -1.796875,1.474609 -0.219969,0.651144 -0.140187,1.210051 -0.113281,1.5625 a 1,1 0 0 0 1.074218,0.921875 1,1 0 0 0 0.919922,-1.074219 c -0.02771,-0.362924 -0.01977,-0.672496 0.01367,-0.771484 0.03344,-0.09899 -0.07757,-0.08024 0.283203,-0.150391 0.270939,-0.05275 0.08828,-0.04037 0.591797,0.04102 1.071574,0.173677 3.376042,0.380021 4.398437,0.541016 1.81321,0.285325 3.629422,0.630675 5.492188,0.923828 2.045034,0.321968 4.609024,0.62138 6.476562,1.144531 a 1.0001,1.0001 0 0 0 0.002,0 c 0.583316,0.163278 0.915285,0.196003 1.308593,0.353516 0.361224,0.144679 0.624915,0.324062 0.947266,0.623046 0.276594,0.256554 0.34746,0.365353 0.427734,0.726563 0.05546,0.248875 0.07227,0.350884 0.07227,0.568359 a 1,1 0 0 0 1,1 1,1 0 0 0 1,-1 c 0,-0.370498 -0.05034,-0.693169 -0.119141,-1.001953 -0.155979,-0.701863 -0.536455,-1.311691 -1.019531,-1.759765 -0.4435,-0.411353 -0.951613,-0.768214 -1.564453,-1.013672 -0.636485,-0.254901 -1.095729,-0.304887 -1.513672,-0.421875 -2.124938,-0.595256 -4.735115,-0.882903 -6.707031,-1.19336 -1.821148,-0.286602 -3.637162,-0.631922 -5.492188,-0.923828 -1.202338,-0.189329 -3.539338,-0.403358 -4.388672,-0.541015 a 1,1 0 0 0 -0.002,0 c -0.488313,-0.07893 -0.869541,-0.11135 -1.291015,-0.0293 z" id="path1027-3"/>
			<path style="color:#000000;vector-effect:non-scaling-stroke;fill:#776f6f;fill-opacity:0.453608;stroke:#ff0009;stroke-width:0.264583;stroke-linecap:round;stroke-linejoin:round;stroke-dasharray:none;stroke-opacity:1;-inkscape-stroke:hairline" d="m 49.009766,24.619141 a 1,1 0 0 0 -0.632813,0.43164 1,1 0 0 0 0.291016,1.382813 c 5.2e-5,3.4e-5 -0.130729,-0.100368 -0.134766,-0.103516 0.01154,0.01128 0.02155,0.0209 0.03711,0.03516 0.04626,0.04239 0.109514,0.09665 0.1875,0.152344 0.155974,0.111383 0.37834,0.237792 0.667969,0.318359 0.494161,0.137434 1.304418,0.296988 2.109375,0.462891 0.804957,0.165903 1.670167,0.368781 1.744141,0.394531 0.190195,0.06621 0.215467,0.0932 0.183594,0.06445 -0.02087,-0.01882 0.0015,0.04177 0.01563,0.08203 -0.0022,0.01057 -0.0055,0.02395 -0.0098,0.03711 -0.0043,0.01316 0.0061,-0.02488 -0.0293,0.08789 a 1.0001,1.0001 0 0 0 -0.002,0.002 c -0.06893,0.221233 -0.127174,0.457736 -0.226563,0.71289 -0.09939,0.255155 -0.242237,0.483726 -0.310546,0.548829 0.06593,-0.06282 -0.411286,0.252774 -0.873047,0.460937 -0.461761,0.208163 -0.976412,0.409427 -1.261719,0.509766 -0.858028,0.301873 -2.762423,0.675781 -3.591797,0.675781 -0.659138,0 -0.709677,-0.06034 -1.537109,0.04297 -0.226244,0.02828 -0.426941,0.06761 -0.572266,0.09961 -0.07266,0.016 -0.126729,0.02867 -0.179687,0.04297 -0.01324,0.0036 -0.02694,0.0057 -0.04687,0.01172 -0.01994,0.0061 -0.153155,0.06194 -0.154297,0.0625 -1.43e-4,6.9e-5 -0.08194,0.04291 -0.08203,0.04297 -9.6e-5,5.9e-5 -0.169871,0.130812 -0.169921,0.13086 -2.6e-5,2.4e-5 0.689453,0.724609 0.689453,0.724609 0,0 -0.279331,0.960928 -0.279297,0.960938 3.4e-5,9e-6 0.12886,0.02734 0.128906,0.02734 9.2e-5,1.4e-5 0.134626,0.01172 0.134766,0.01172 2.79e-4,5e-6 0.08592,-0.002 0.107422,-0.0039 0.08601,-0.0077 0.08948,-0.01222 0.107421,-0.01563 a 1,1 0 0 0 0.328125,-0.132813 c -6.74e-4,5.17e-4 -0.0078,0.0059 -0.0078,0.0059 9.7e-5,-5.9e-5 -0.08022,0.04499 -0.08008,0.04492 0.0011,-5.58e-4 -0.128644,0.05104 -0.140625,0.05469 0.0098,-0.0025 0.03306,-0.0066 0.07422,-0.01563 0.09772,-0.02152 0.251677,-0.05099 0.390625,-0.06836 0.741054,-0.09253 0.512551,-0.02734 1.289062,-0.02734 1.301502,0 3.095043,-0.380662 4.255859,-0.789063 0.354604,-0.124709 0.89213,-0.334335 1.419922,-0.572265 0.527793,-0.23793 0.976636,-0.404384 1.431641,-0.837891 0.429799,-0.409624 0.64114,-0.874735 0.794922,-1.269531 0.153459,-0.393968 0.246828,-0.762378 0.271484,-0.841797 v -0.002 c -0.02441,0.07794 0.0013,-0.0025 0.02148,-0.06445 0.02078,-0.06362 0.04682,-0.149549 0.06836,-0.253906 0.04308,-0.208715 0.07882,-0.499494 -0.0098,-0.851563 -0.10846,-0.428532 -0.314031,-0.836947 -0.626953,-1.119141 -0.312921,-0.282193 -0.634225,-0.390965 -0.863281,-0.470703 -0.497226,-0.173087 -1.188533,-0.296048 -1.998047,-0.46289 -0.809513,-0.166843 -1.672491,-0.346531 -1.978516,-0.431641 -0.02111,-0.0059 -0.03573,-0.01576 -0.04102,-0.01953 -0.0041,-0.0041 -0.02331,-0.02136 -0.02344,-0.02148 -1.31e-4,-1.23e-4 -0.134713,-0.107387 -0.134765,-0.107421 a 1,1 0 0 0 -0.751953,-0.140625 z m -3.871094,6.414062 c -1.4e-4,-2e-6 0.132904,0.01173 0.132812,0.01172 -4.5e-5,-7e-6 0.12894,0.02735 0.128907,0.02734 -9e-6,-3e-6 -0.04253,0.149642 -0.06836,0.238281 a 1,1 0 0 0 -0.384765,-0.261719 c 0.0077,-0.0015 0.0037,-0.0043 0.08594,-0.01172 0.02056,-0.0018 0.105748,-0.0039 0.105469,-0.0039 z M 45.802734,32.75 c 1.67e-4,1.74e-4 0.0078,0.0078 0.0078,0.0078 2.3e-5,-2.1e-5 -0.03837,0.02965 -0.07617,0.05859 A 1,1 0 0 0 45.802734,32.75 Z" id="path1033-2"/>
			<path style="color:#000000;vector-effect:non-scaling-stroke;fill:#776f6f;fill-opacity:0.453608;stroke:#ff0009;stroke-width:0.264583;stroke-linecap:round;stroke-linejoin:round;stroke-dasharray:none;stroke-opacity:1;-inkscape-stroke:hairline" d="m 49.28125,24.130859 a 1,1 0 0 0 -1.09375,0.898438 c -0.0056,0.05776 0.02179,-0.04339 0.05664,-0.08008 0.03485,-0.03669 0.01922,-0.01088 -0.101563,0.04883 v -0.002 c 0.1651,-0.08154 -0.09784,0.01988 -0.339844,0.06641 -0.241998,0.04652 -0.503095,0.07913 -0.83789,0.210937 v -0.002 c -0.561361,0.220854 -1.112886,0.44455 -1.63086,0.828125 -0.517974,0.383576 -0.969343,0.951789 -1.228515,1.667969 -0.17305,0.478324 -0.266627,0.92195 -0.28125,1.408203 -0.02968,0.971434 0.229687,2.530889 0.326172,3.041016 a 1,1 0 0 0 1.169921,0.796875 1,1 0 0 0 0.794922,-1.167969 c 0.01064,0.05628 -0.295579,-2.459996 -0.291015,-2.609375 0.01,-0.331082 0.02629,-0.411702 0.162109,-0.787109 0.139226,-0.384728 0.285535,-0.555889 0.537109,-0.742188 0.251575,-0.186298 0.643036,-0.365391 1.173829,-0.574219 -0.01188,0.0047 0.236434,-0.06013 0.482421,-0.107421 0.245988,-0.04729 0.448421,-0.03623 0.84961,-0.234375 a 1.0001,1.0001 0 0 0 0,-0.002 c 0.150984,-0.07463 0.410197,-0.19371 0.664062,-0.460937 0.253866,-0.267227 0.443319,-0.685203 0.484375,-1.105469 A 1,1 0 0 0 49.28125,24.130859 Z" id="path1025-7"/>
			<path style="color:#000000;vector-effect:non-scaling-stroke;fill:#776f6f;fill-opacity:0.453608;stroke:#ff0009;stroke-width:0.264583;stroke-linecap:round;stroke-linejoin:round;stroke-dasharray:none;stroke-opacity:1;-inkscape-stroke:hairline" d="m 39.542969,13.138672 a 1,1 0 0 0 -1.056641,0.9375 1,1 0 0 0 0.9375,1.058594 c 0.874687,0.05264 1.564982,0.218618 2.466797,0.46289 1.057915,0.286501 2.172992,1.027494 3.044922,1.810547 1.149156,1.032204 1.998756,2.077262 2.447265,3.34375 0.322518,0.910499 0.654962,2.367143 0.673829,2.992188 0.0127,0.411279 0.08029,0.712752 0.111328,0.876953 0.03103,0.1642 0.04033,0.196696 0.01953,0.408203 a 1,1 0 0 0 0.898437,1.091797 1,1 0 0 0 1.091797,-0.896485 c 0.03974,-0.403997 -0.0027,-0.75106 -0.04492,-0.974609 -0.04225,-0.223549 -0.06854,-0.319338 -0.07617,-0.566406 -0.03328,-1.102514 -0.405029,-2.515446 -0.789063,-3.59961 -0.598559,-1.690192 -1.708769,-3.009505 -2.994141,-4.164062 -1.022353,-0.918144 -2.335027,-1.839135 -3.859375,-2.251953 -0.928964,-0.251626 -1.800606,-0.464876 -2.871093,-0.529297 z" id="path1023-4"/>
			<path style="color:#000000;vector-effect:non-scaling-stroke;fill:#776f6f;fill-opacity:0.453608;stroke:#ff0009;stroke-width:0.264583;stroke-linecap:round;stroke-linejoin:round;stroke-dasharray:none;stroke-opacity:1;-inkscape-stroke:hairline" d="m 39.542969,13.138672 c -2.188363,-0.13176 -4.338208,0.184905 -6.339844,1.259766 -1.490641,0.800473 -2.698885,1.835933 -3.789063,3.197265 -0.667156,0.832906 -1.083204,1.719443 -1.470703,2.560547 -0.59444,1.29025 -0.531785,2.302276 -0.685547,3.238281 -0.262256,1.595642 0.04273,2.871425 0.326172,4.146485 0.293132,1.318997 0.966989,2.183789 1.1875,2.90039 0.257564,0.83856 0.336523,0.856766 0.220703,1.371094 a 1,1 0 0 0 0.75586,1.195312 1,1 0 0 0 1.195312,-0.755859 c 0.206832,-0.918489 -0.02113,-1.619547 -0.259765,-2.396484 a 1.0001,1.0001 0 0 0 0,-0.002 c -0.366433,-1.190807 -0.9761,-1.972581 -1.148438,-2.748047 -0.286878,-1.290522 -0.499043,-2.192319 -0.302734,-3.386719 0.194324,-1.182928 0.126177,-1.853864 0.527344,-2.724609 0.379906,-0.824625 0.731039,-1.544437 1.214843,-2.148438 0.954096,-1.191403 1.913454,-2.007678 3.175782,-2.685547 1.625758,-0.873017 3.348574,-1.141285 5.273437,-1.02539 a 1,1 0 0 0 1.058594,-0.9375 1,1 0 0 0 -0.939453,-1.058594 z" id="path1021-66"/>
			<path style="color:#000000;vector-effect:non-scaling-stroke;fill:#776f6f;fill-opacity:0.453608;stroke:#ff0009;stroke-width:0.264583;stroke-linecap:round;stroke-linejoin:round;stroke-dasharray:none;stroke-opacity:1;-inkscape-stroke:hairline" d="M 5.1933594,24.255859 C 4.7374715,24.219476 4.2647909,24.406453 4,24.652344 3.7352091,24.898234 3.6333199,25.169755 3.6054688,25.242187 a 1,1 0 0 0 0.5742187,1.292969 1,1 0 0 0 0.9921875,-0.257812 c 5.382e-4,2.19e-4 0.00338,-2.13e-4 0.00391,0 0.019608,0.0079 -0.1304416,-0.0049 0.2714844,0.11914 0.4292008,0.132357 0.5801461,0.09833 0.8203125,0.166016 0.2401664,0.06769 0.5630717,0.195582 1.0605469,0.580078 1.3739502,1.062204 3.0706712,2.839588 5.0722662,3.724609 1.035265,0.457602 2.106447,0.756106 3.146484,1.013672 1.876359,0.464828 3.783134,0.902828 5.691406,1.28711 1.563173,0.314829 3.165803,0.535774 4.75,0.785156 v -0.002 c 0.644509,0.101557 1.452853,0.185172 2.048828,0.179687 0.241313,-0.0023 0.773938,0.06211 1.402344,-0.142578 0.628406,-0.204686 1.305725,-0.855877 1.503906,-1.736328 A 1,1 0 0 0 30.1875,31.056641 1,1 0 0 0 28.992187,31.8125 c -0.07693,0.34177 -0.05671,0.235927 -0.171875,0.273437 -0.11516,0.03751 -0.41363,0.04116 -0.802734,0.04492 -0.358814,0.0033 -1.184583,-0.07043 -1.716797,-0.154297 a 1.0001,1.0001 0 0 0 -0.002,0 c -1.610021,-0.253453 -3.1871,-0.469726 -4.665969,-0.767576 -1.872965,-0.377171 -3.751767,-0.808363 -5.605468,-1.267578 -0.99669,-0.246831 -1.956259,-0.523237 -2.81836,-0.904297 C 11.781208,28.405806 10.108102,26.764515 8.5507813,25.560547 7.8789297,25.041276 7.285386,24.770544 6.8105469,24.636719 6.3357078,24.502894 5.9727912,24.464541 6.0371094,24.484375 6.3734425,24.588178 6.1059884,24.496785 5.9257812,24.423828 5.7455741,24.350871 5.4923178,24.27954 5.1933594,24.255859 Z m 0.2792968,1.705078 c 0.00273,-0.0071 -0.021884,0.07319 -0.1113281,0.15625 -0.016674,0.01548 -0.037946,0.01222 -0.060547,0.02539 a 1,1 0 0 0 0.171875,-0.181641 z" id="path1019-1"/>
			<path style="color:#000000;vector-effect:non-scaling-stroke;fill:#776f6f;fill-opacity:0.453608;stroke:#ff0009;stroke-width:0.264583;stroke-linecap:round;stroke-linejoin:round;stroke-dasharray:none;stroke-opacity:1;-inkscape-stroke:hairline" d="m 4.8984375,24.667969 a 1,1 0 0 0 -1.2929687,0.576172 c -0.2520699,0.657077 -0.121005,0.988866 -0.080078,1.503906 0.040927,0.51504 0.1010944,1.103369 0.1191407,1.703125 0.0668,2.219607 0.5297586,5.062715 0.9609374,7.228515 0.1994662,1.002342 0.389285,1.94625 0.5957032,2.982422 0.4547794,2.28564 0.7284032,5.2795 1.8691406,7.75586 0.5896431,1.279849 1.2263263,2.611192 2.1503906,3.802734 1.9280147,2.486264 4.4190377,3.763045 7.1699217,4.75 a 1,1 0 0 0 1.279297,-0.603516 1,1 0 0 0 -0.603516,-1.279296 C 14.463561,52.154048 12.426433,51.092446 10.800781,48.996094 10.050935,48.029198 9.4659485,46.837325 8.8867188,45.580078 7.9624699,43.573681 7.6497563,40.711633 7.1640625,38.271484 a 1.0001,1.0001 0 0 0 0,-0.002 C 6.9567991,37.229116 6.7649457,36.286747 6.5664062,35.289062 6.148016,33.187499 5.702356,30.378855 5.6425781,28.392578 5.6217944,27.701841 5.5575099,27.067782 5.5195312,26.589844 5.4815526,26.111906 5.5795162,25.680429 5.4726562,25.958984 A 1,1 0 0 0 4.8984375,24.667969 Z" id="path2563-3"/>
			<path style="color:#000000;vector-effect:non-scaling-stroke;fill:#776f6f;fill-opacity:0.453608;stroke:#ff0009;stroke-width:0.264583;stroke-linecap:round;stroke-linejoin:round;stroke-dasharray:none;stroke-opacity:1;-inkscape-stroke:hairline" d="m 39.126953,53.007812 c -0.567333,0.216754 -1.102521,0.274154 -1.871094,0.421875 -1.954574,0.375526 -4.443247,0.201172 -6.716797,0.201172 -3.833286,0 -8.332418,0.453187 -11.738281,-0.201172 -0.791942,-0.152139 -1.163199,-0.136902 -1.734375,-0.341796 a 1,1 0 0 0 -1.279297,0.603515 1,1 0 0 0 0.603516,1.279297 c 0.845008,0.303125 1.411392,0.304748 2.03125,0.423828 3.87535,0.74456 8.455209,0.236328 12.117187,0.236328 2.155524,0 4.738771,0.216126 7.09375,-0.236328 0.673549,-0.129458 1.373316,-0.201005 2.207032,-0.519531 a 1,1 0 0 0 0.578125,-1.291016 1,1 0 0 0 -1.291016,-0.576172 z" id="path1015-6"/>
			<path style="color:#000000;vector-effect:non-scaling-stroke;fill:#776f6f;fill-opacity:0.453608;stroke:#ff0009;stroke-width:0.264583;stroke-linecap:round;stroke-linejoin:round;stroke-dasharray:none;stroke-opacity:1;-inkscape-stroke:hairline" d="m 45.433594,37.171875 a 1,1 0 0 0 -0.777344,1.181641 c 0.29352,1.423994 0.814241,2.709802 0.886719,3.789062 0.03466,0.521666 0.1192,0.954329 0.152343,1.287109 0.02267,0.228637 0.0078,0.335007 0.0078,0.685547 0,0.388076 0.01667,0.441328 -0.0078,0.685547 a 1.0001,1.0001 0 0 0 0,0.002 c -0.02578,0.261066 -0.365137,1.835711 -0.517578,2.292969 -0.31314,0.939645 -0.769892,1.752195 -1.371093,2.527344 -1.250347,1.612413 -2.826298,2.676816 -4.679688,3.384765 a 1,1 0 0 0 -0.578125,1.291016 1,1 0 0 0 1.291016,0.576172 c 2.13037,-0.813749 4.054658,-2.101067 5.546875,-4.025391 0.717851,-0.925549 1.299818,-1.953862 1.689453,-3.123047 C 47.328105,46.970868 47.614059,45.721814 47.685547,45 v -0.002 c 0.03691,-0.369838 0.01758,-0.561546 0.01758,-0.882813 0,-0.280378 0.01947,-0.509085 -0.01758,-0.882812 -0.0457,-0.458863 -0.122067,-0.855171 -0.146485,-1.222656 a 1.0001,1.0001 0 0 0 0,-0.002 c -0.103923,-1.54742 -0.688531,-2.907499 -0.925781,-4.0585 a 1,1 0 0 0 -1.179687,-0.777344 z" id="path1013-4"/>
			<path style="color:#000000;vector-effect:non-scaling-stroke;fill:#776f6f;fill-opacity:0.453608;stroke:#ff0009;stroke-width:0.264583;stroke-linecap:round;stroke-linejoin:round;stroke-dasharray:none;stroke-opacity:1;-inkscape-stroke:hairline" d="m 44.976562,31.1875 a 1,1 0 0 0 -1,1 v 1.884766 c 0,1.523505 0.420005,3.02063 0.679688,4.28125 a 1,1 0 0 0 1.179687,0.777343 1,1 0 0 0 0.777344,-1.179687 C 46.335557,36.602969 45.976562,35.204735 45.976562,34.072266 V 32.1875 a 1,1 0 0 0 -1,-1 z" id="path302-2"/>
			<path style="vector-effect:non-scaling-stroke;fill:#bfbfbf;fill-opacity:1;fill-rule:evenodd;stroke:#ae1515;stroke-width:0.264583;stroke-linecap:round;stroke-linejoin:round;stroke-dasharray:none;stroke-opacity:1;-inkscape-stroke:hairline" d="m 43.762252,22.489014 a 1.9548239,1.8540596 0 0 1 -1.954791,1.854056 1.9548239,1.8540596 0 0 1 -1.954879,-1.854056 1.9548239,1.8540596 0 0 1 1.954879,-1.854067 1.9548239,1.8540596 0 0 1 1.954791,1.854067 z" id="path910-4"/>
		</g>
	
</svg>
