<?xml version="1.0" encoding="UTF-8" standalone="no"?>
<svg
   style="height: 512px; width: 512px;"
   viewBox="0 0 512 512"
   version="1.1"
   id="svg200"
   sodipodi:docname="separated-witch-flight.svg"
   inkscape:version="1.2.2 (732a01da63, 2022-12-09)"
   xmlns:inkscape="http://www.inkscape.org/namespaces/inkscape"
   xmlns:sodipodi="http://sodipodi.sourceforge.net/DTD/sodipodi-0.dtd"
   xmlns="http://www.w3.org/2000/svg"
   xmlns:svg="http://www.w3.org/2000/svg">
  <defs
     id="defs204" />
  <sodipodi:namedview
     id="namedview202"
     pagecolor="#ffffff"
     bordercolor="#666666"
     borderopacity="1.0"
     inkscape:showpageshadow="2"
     inkscape:pageopacity="0.0"
     inkscape:pagecheckerboard="0"
     inkscape:deskcolor="#d1d1d1"
     showgrid="false"
     inkscape:zoom="1.5771796"
     inkscape:cx="295.78115"
     inkscape:cy="268.20027"
     inkscape:window-width="2560"
     inkscape:window-height="1387"
     inkscape:window-x="-8"
     inkscape:window-y="-8"
     inkscape:window-maximized="1"
     inkscape:current-layer="svg200" />
  <path
     style="fill:none;stroke:#000000;stroke-width:2mm;stroke-dasharray:none;stroke-opacity:1"
     d="M 491.97 256.422 L 491.97 255.109 M 256 491.547 C 386.276 491.547 491.97 386.7 491.97 256.422 M 82.282 415.639 C 125.417 462.346 187.27 491.547 256 491.547"
     id="1" />
  <path
     style="fill:none;stroke:#000000;stroke-width:2mm;stroke-dasharray:none;stroke-opacity:1"
     d="M 150.782 347.609 C 144.496 391.511 115.21 407.167 82.282 415.639"
     id="2" />
  <path
     style="fill:none;stroke:#000000;stroke-width:2mm;stroke-dasharray:none;stroke-opacity:1"
     d="M 256.782 318.859 L 150.782 347.609"
     id="3" />
  <path
     style="fill:none;stroke:#000000;stroke-width:2mm;stroke-dasharray:none;stroke-opacity:1"
     d="M 183.719 382.859 L 256.782 318.859"
     id="4" />
  <path
     style="fill:none;stroke:#000000;stroke-width:2mm;stroke-dasharray:none;stroke-opacity:1"
     d="M 236.249 390.046 L 183.719 382.859 M 221.469 401.109 L 236.249 390.046"
     id="5" />
  <path
     style="fill:none;stroke:#000000;stroke-width:2mm;stroke-dasharray:none;stroke-opacity:1"
     d="M 293.719 471.515 L 221.469 401.109 M 275.281 409.015 L 293.719 471.515 M 323.969 456.453 L 275.281 409.015"
     id="8" />
  <path
     style="fill:none;stroke:#000000;stroke-width:2mm;stroke-dasharray:none;stroke-opacity:1"
     d="M 307.219 399.765 L 323.969 456.453 M 322.844 401.889 L 307.219 399.765 M 365.438 321.359 L 322.844 401.889"
     id="10" />
  <path
     style="fill:none;stroke:#000000;stroke-width:2mm;stroke-dasharray:none;stroke-opacity:1"
     d="M 323.844 300.672 L 365.438 321.359"
     id="11" />
  <path
     style="fill:none;stroke:#000000;stroke-width:2mm;stroke-dasharray:none;stroke-opacity:1"
     d="M 491.97 255.109 L 323.844 300.672"
     id="12" />
  <path
     style="fill:none;stroke:#000000;stroke-width:2mm;stroke-dasharray:none;stroke-opacity:1"
     d="M 317.844 242.92 L 294.25 211.827 M 319.281 244.794 L 317.844 242.92 M 321.406 245.764 L 319.281 244.794 M 370.969 268.514 L 321.406 245.764"
     id="13" />
  <path
     style="fill:none;stroke:#000000;stroke-width:2mm;stroke-dasharray:none;stroke-opacity:1"
     d="M 298.594 288.138 L 370.969 268.514"
     id="14" />
  <path
     style="fill:none;stroke:#000000;stroke-width:2mm;stroke-dasharray:none;stroke-opacity:1"
     d="M 270.406 274.138 L 298.594 288.138 M 294.25 211.828 C 274.224 223.268 263.38 244.463 270.406 274.138"
     id="15" />
  <path
     style="fill:none;stroke:#000000;stroke-width:2mm;stroke-dasharray:none;stroke-opacity:1"
     d="M 491.064 235.953 C 480.681 115.25 379.38 20.453 256 20.453 M 20.03 256.423 C 20.032 281.913 24.108 306.409 31.594 329.359 M 256 20.453 C 125.724 20.453 20.03 126.146 20.03 256.423"
     id="17" />	 
  <path
     style="fill:none;stroke:#000000;stroke-width:2mm;stroke-dasharray:none;stroke-opacity:1"
     d="M 399.094 260.889 L 491.064 235.953"
     id="18" />
  <path
     style="fill:none;stroke:#000000;stroke-width:2mm;stroke-dasharray:none;stroke-opacity:1"
     d="M 331.344 229.764 L 399.094 260.889 M 295.906 183.076 L 331.344 229.764"
     id="19" />
  <path
     style="fill:none;stroke:#000000;stroke-width:2mm;stroke-dasharray:none;stroke-opacity:1"
     d="M 314.469 133.231 C 323.029 151.926 315.252 176.301 295.906 183.076"
     id="21" />
  <path
     style="fill:none;stroke:#000000;stroke-width:2mm;stroke-dasharray:none;stroke-opacity:1"
     d="M 329.749 47.201 C 342.703 75.593 341.651 114.683 314.469 133.231 M 299.719 92.169 C 313.812 80.533 324.647 66.529 329.749 47.201"
     id="22" />
  <path
     style="fill:none;stroke:#000000;stroke-width:2mm;stroke-dasharray:none;stroke-opacity:1"
     d="M 238.624 47.201 L 299.719 92.169"
     id="23" />
  <path
     style="fill:none;stroke:#000000;stroke-width:2mm;stroke-dasharray:none;stroke-opacity:1"
     d="M 136.314 82.263 L 238.624 47.201"
     id="24" />
  <path
     style="fill:none;stroke:#000000;stroke-width:2mm;stroke-dasharray:none;stroke-opacity:1"
     d="M 237.374 130.013 C 235.43 81.805 184.744 78.249 136.314 82.263 M 161.844 194.827 C 182.056 163.74 209.964 145.429 237.374 130.013 M 221.47 171.235 L 161.844 194.827"
     id="27" />
  <path
     style="fill:none;stroke:#000000;stroke-width:2mm;stroke-dasharray:none;stroke-opacity:1"
     d="M 211.657 294.265 C 209.141 236.117 210.837 203.775 221.47 171.235"
     id="28" />
  <path
     style="fill:none;stroke:#000000;stroke-width:2mm;stroke-dasharray:none;stroke-opacity:1"
     d="M 233.375 305.829 L 211.657 294.265 M 146.688 329.359 L 233.375 305.829"
     id="29" />
  <path
     style="fill:none;stroke:#000000;stroke-width:2mm;stroke-dasharray:none;stroke-opacity:1"
     d="M 31.594 329.359 C 69.957 317.337 108.326 308.256 146.688 329.359"
     id="30" />
 
</svg>
